<?xml version="1.0" encoding="UTF-8"?>
<svg version="1.1" xmlns="http://www.w3.org/2000/svg" width="256" height="148">
<path d="M0 0 C84.48 0 168.96 0 256 0 C256 48.84 256 97.68 256 148 C171.52 148 87.04 148 0 148 C0 99.16 0 50.32 0 0 Z " fill="#F3F4F5" transform="translate(0,0)"/>
<path d="M0 0 C3.96 0 7.92 0 12 0 C12 22.11 12 44.22 12 67 C12.66 67 13.32 67 14 67 C13.67 67.78375 13.34 68.5675 13 69.375 C11.88133489 71.84332497 11.88133489 71.84332497 12 74 C12.66 74 13.32 74 14 74 C14 74.66 14 75.32 14 76 C14.66 76 15.32 76 16 76 C16 81.61 16 87.22 16 93 C5.57332765 98.54610231 -4.71163535 102.57622337 -16 106 C-16.72171387 106.22429687 -17.44342773 106.44859375 -18.18701172 106.6796875 C-39.15104377 113.14625216 -59.75217072 115.67509091 -81.67211914 115.52148438 C-85.32700104 115.49991442 -88.97994023 115.52148579 -92.63476562 115.546875 C-117.88338331 115.57642301 -142.76252179 111.55576727 -162.1484375 93.96484375 C-165.58066931 90.32262308 -168.28868825 86.19154141 -171 82 C-171.66 81.01 -172.32 80.02 -173 79 C-173.59765625 77.0625 -173.59765625 77.0625 -174.0625 75 C-174.61365865 72.59494408 -175.21684925 70.34945224 -176 68 C-176.25583527 64.65049617 -176.2314076 61.29575209 -176.25 57.9375 C-176.270625 57.03322266 -176.29125 56.12894531 -176.3125 55.19726562 C-176.4050341 39.01536447 -168.47419105 25.77785156 -157.55078125 14.36328125 C-155.37186313 12.34452862 -153.7263516 11.09181762 -151 10 C-150.6875 12.6875 -150.6875 12.6875 -151 16 C-151.74378906 16.73089844 -152.48757812 17.46179688 -153.25390625 18.21484375 C-156.49339228 21.50041066 -158.25193231 24.76359147 -160.25 28.875 C-160.600625 29.55691406 -160.95125 30.23882812 -161.3125 30.94140625 C-163.49213827 35.34259892 -164.56551352 39.10563755 -165 44 C-164.73445313 43.31292969 -164.46890625 42.62585938 -164.1953125 41.91796875 C-163.84210938 41.01691406 -163.48890625 40.11585937 -163.125 39.1875 C-162.77695313 38.29417969 -162.42890625 37.40085938 -162.0703125 36.48046875 C-161 34 -161 34 -159 31 C-158.29835358 29.01200182 -157.62627128 27.01301483 -157 25 C-156.34 25 -155.68 25 -155 25 C-154.01 21.535 -154.01 21.535 -153 18 C-150 19 -150 19 -148.8125 21.0625 C-148.544375 21.701875 -148.27625 22.34125 -148 23 C-147.01 22.67 -146.02 22.34 -145 22 C-143.78130071 19.49552484 -143.78130071 19.49552484 -143 17 C-139.7 17.33 -136.4 17.66 -133 18 C-133 17.01 -133 16.02 -133 15 C-132.34 15 -131.68 15 -131 15 C-131 15.66 -131 16.32 -131 17 C-130.01 17 -129.02 17 -128 17 C-127.34 19.31 -126.68 21.62 -126 24 C-124.02 23.34 -122.04 22.68 -120 22 C-120 21.34 -120 20.68 -120 20 C-115.67673967 19.9007989 -111.35408976 19.82837735 -107.0300293 19.78027344 C-105.56051079 19.76021175 -104.09107159 19.73295522 -102.62182617 19.69824219 C-100.50419513 19.64947859 -98.38762313 19.62697839 -96.26953125 19.609375 C-94.99698486 19.58842773 -93.72443848 19.56748047 -92.41333008 19.54589844 C-88.41645531 20.07763344 -86.75113323 21.09093681 -84 24 C-84 24.99 -84 25.98 -84 27 C-83.34 27 -82.68 27 -82 27 C-78.61045808 35.25279772 -78.31328058 43.19573542 -78 52 C-78 47.71 -78 43.42 -78 39 C-77.34 39 -76.68 39 -76 39 C-75.67 33.72 -75.34 28.44 -75 23 C-74.67 23 -74.34 23 -74 23 C-73.505 31.91 -73.505 31.91 -73 41 C-72.67 29.78 -72.34 18.56 -72 7 C-68.37 7 -64.74 7 -61 7 C-61 11.29 -61 15.58 -61 20 C-58.03 20 -55.06 20 -52 20 C-52 22.97 -52 25.94 -52 29 C-54.97 29 -57.94 29 -61 29 C-59.97034405 30.25872256 -59.97034405 30.25872256 -57.75 30.0625 C-56.38875 30.0315625 -56.38875 30.0315625 -55 30 C-53.33376361 29.96213099 -51.66602403 29.95372155 -50 30 C-48.03177114 31.96822886 -48.33751619 35.34808709 -48 38 C-47.79697266 37.03900391 -47.79697266 37.03900391 -47.58984375 36.05859375 C-45.94452333 29.44775541 -43.60534882 25.02669956 -38 21 C-32.47476452 18.30120511 -27.02835907 18.12787699 -21 19 C-13.96352378 22.01860666 -9.82607258 26.77120033 -6.8125 33.75 C-5.88529239 37.45883043 -5.6204368 41.01650683 -5.44140625 44.828125 C-5.18765852 47.38399136 -5.18765852 47.38399136 -2 49 C-1.67 49.99 -1.34 50.98 -1 52 C-0.67 34.84 -0.34 17.68 0 0 Z " fill="#F2F4F4" transform="translate(190,33)"/>
<path d="M0 0 C21.12 0 42.24 0 64 0 C64 48.84 64 97.68 64 148 C23.41 148 -17.18 148 -59 148 C-59 147.67 -59 147.34 -59 147 C-58.12770752 146.86537354 -58.12770752 146.86537354 -57.23779297 146.72802734 C-32.61912443 142.86013636 -9.63339853 136.47842524 13 126 C13.33 120.39 13.66 114.78 14 109 C13.34 109 12.68 109 12 109 C12 108.34 12 107.68 12 107 C10.515 107.495 10.515 107.495 9 108 C9 104.42424104 10.08840607 102.94704065 12 100 C11.34 99.67 10.68 99.34 10 99 C10.117282 91.47017447 10.24211802 83.94050191 10.37231445 76.41088867 C10.41574066 73.84711579 10.45740985 71.28331254 10.49731445 68.71948242 C10.55483147 65.04336372 10.61857863 61.36739901 10.68359375 57.69140625 C10.70030624 56.53725723 10.71701874 55.38310822 10.73423767 54.19398499 C10.75418289 53.13296066 10.77412811 52.07193634 10.79467773 50.97875977 C10.81022202 50.03944107 10.8257663 49.10012238 10.84178162 48.13233948 C11 46 11 46 12 45 C12.07179964 43.48071962 12.08392007 41.95832518 12.0625 40.4375 C12.05347656 39.61121094 12.04445313 38.78492188 12.03515625 37.93359375 C12.02355469 37.29550781 12.01195312 36.65742187 12 36 C12.66 36 13.32 36 14 36 C14.99 38.97 14.99 38.97 16 42 C17.62463842 42.05395478 19.24978541 42.09277195 20.875 42.125 C22.23238281 42.15980469 22.23238281 42.15980469 23.6171875 42.1953125 C26.18806994 42.24324836 26.18806994 42.24324836 28 40 C27.98333671 37.49675668 27.98333671 37.49675668 27 35 C25.0431712 33.17662247 25.0431712 33.17662247 23 32 C23.495 30.515 23.495 30.515 24 29 C25.65204456 28.29788106 27.31923769 27.63028587 29 27 C29.33 26.34 29.66 25.68 30 25 C30.33 25.33 30.66 25.66 31 26 C30.95875 27.134375 30.9175 28.26875 30.875 29.4375 C30.91625 30.613125 30.9575 31.78875 31 33 C32.485 33.99 32.485 33.99 34 35 C34 35.99 34 36.98 34 38 C34.99 38 35.98 38 37 38 C40 39 40 39 41.1875 41.375 C43.46354015 51.52964069 41.65995759 59.75051239 37 69 C34.91729606 72.26504656 32.6078395 75.14194135 30 78 C29.38511719 78.68320313 28.77023438 79.36640625 28.13671875 80.0703125 C23.62392313 84.84401922 23.62392313 84.84401922 19 86 C19.495 91.94 19.495 91.94 20 98 C29.44051437 93.61690404 36.58218865 88.2424832 43 80 C43.4640625 79.40703125 43.928125 78.8140625 44.40625 78.203125 C52.46851195 66.69965368 53.40043604 52.25290693 51.375 38.75 C48.96746941 28.36859148 41.79758431 19.60898617 33 14 C22.42819151 7.57775402 12.01292601 3.86218627 0 1 C0 0.67 0 0.34 0 0 Z " fill="#F5F6F6" transform="translate(192,0)"/>
<path d="M0 0 C3.96 0 7.92 0 12 0 C12 22.11 12 44.22 12 67 C12.66 67 13.32 67 14 67 C13.67 67.78375 13.34 68.5675 13 69.375 C11.88133489 71.84332497 11.88133489 71.84332497 12 74 C12.66 74 13.32 74 14 74 C14 74.66 14 75.32 14 76 C14.66 76 15.32 76 16 76 C16 81.61 16 87.22 16 93 C5.57332765 98.54610231 -4.71163535 102.57622337 -16 106 C-16.72171387 106.22429687 -17.44342773 106.44859375 -18.18701172 106.6796875 C-39.15104377 113.14625216 -59.75217072 115.67509091 -81.67211914 115.52148438 C-85.32700104 115.49991442 -88.97994023 115.52148579 -92.63476562 115.546875 C-117.88338331 115.57642301 -142.76252179 111.55576727 -162.1484375 93.96484375 C-165.58066931 90.32262308 -168.28868825 86.19154141 -171 82 C-171.66 81.01 -172.32 80.02 -173 79 C-173.59765625 77.0625 -173.59765625 77.0625 -174.0625 75 C-174.61365865 72.59494408 -175.21684925 70.34945224 -176 68 C-176.25583527 64.65049617 -176.2314076 61.29575209 -176.25 57.9375 C-176.270625 57.03322266 -176.29125 56.12894531 -176.3125 55.19726562 C-176.4050341 39.01536447 -168.47419105 25.77785156 -157.55078125 14.36328125 C-155.37186313 12.34452862 -153.7263516 11.09181762 -151 10 C-150.6875 12.6875 -150.6875 12.6875 -151 16 C-151.74507812 16.7321875 -152.49015625 17.464375 -153.2578125 18.21875 C-156.48129917 21.48815528 -158.21110943 24.71717218 -160.1875 28.8125 C-160.52974609 29.48603516 -160.87199219 30.15957031 -161.22460938 30.85351562 C-166.61519364 41.79169146 -168.02147345 54.41445428 -164.9375 66.3125 C-161.63427232 75.46583651 -156.42578023 83.05221887 -148 88 C-146.74123047 88.75023438 -146.74123047 88.75023438 -145.45703125 89.515625 C-131.71378622 97.02228022 -116.3448195 100.11863827 -100.8046875 100.203125 C-99.51177795 100.21357849 -99.51177795 100.21357849 -98.19274902 100.22424316 C-95.42011602 100.2415729 -92.64768493 100.24796456 -89.875 100.25 C-88.45855194 100.25151062 -88.45855194 100.25151062 -87.01348877 100.25305176 C-73.15038276 100.24302931 -59.6108611 99.88733911 -46 97 C-45.29987793 96.85546387 -44.59975586 96.71092773 -43.87841797 96.56201172 C-34.81272158 94.63081949 -25.99900846 91.8331515 -17.2043457 88.93041992 C-16.43952881 88.6801001 -15.67471191 88.42978027 -14.88671875 88.171875 C-14.20826904 87.9459668 -13.52981934 87.72005859 -12.83081055 87.48730469 C-11 87 -11 87 -8 87 C-8 86.34 -8 85.68 -8 85 C-8.99 84.67 -9.98 84.34 -11 84 C-10.34 83.67 -9.68 83.34 -9 83 C-10.72226496 79.75150023 -10.72226496 79.75150023 -14 79 C-14 75.04 -14 71.08 -14 67 C-15.11117187 67.04640625 -16.22234375 67.0928125 -17.3671875 67.140625 C-34.33563825 67.64446832 -34.33563825 67.64446832 -41 63 C-46.28968492 57.5905897 -48.15038161 53.00019609 -48.25 45.4375 C-48.15570183 37.12211618 -47.50284617 30.2364076 -41.625 24 C-36.45280326 19.08759397 -30.99095083 18.43550085 -24.078125 18.5546875 C-17.67614807 19.48086183 -13.53884551 23.1060363 -9.5625 28 C-6.61900383 33.65151264 -5.73735587 38.52726218 -5.44140625 44.828125 C-5.18765852 47.38399136 -5.18765852 47.38399136 -2 49 C-1.67 49.99 -1.34 50.98 -1 52 C-0.67 34.84 -0.34 17.68 0 0 Z " fill="#0A60A7" transform="translate(190,33)"/>
<path d="M0 0 C44.55 0 89.1 0 135 0 C135 0.33 135 0.66 135 1 C133.1128125 1.34611328 133.1128125 1.34611328 131.1875 1.69921875 C121.30005807 3.5659088 111.80616314 5.77802879 102.28515625 9.046875 C99.30299958 9.91209049 97.07327313 10.20993896 94 10 C94 10.66 94 11.32 94 12 C93.00742188 12.3403125 92.01484375 12.680625 90.9921875 13.03125 C82.33446694 16.09189787 74.66112588 19.65233564 66.890625 24.55859375 C64 26 64 26 61.609375 25.72265625 C61.07828125 25.48417969 60.5471875 25.24570312 60 25 C59.505 26.485 59.505 26.485 59 28 C60.32 28 61.64 28 63 28 C63 29.98 63 31.96 63 34 C59.57767028 35.14077657 56.91326783 35.09815117 53.3125 35.0625 C51.54326172 35.04896484 51.54326172 35.04896484 49.73828125 35.03515625 C48.83464844 35.02355469 47.93101563 35.01195312 47 35 C47 38.63 47 42.26 47 46 C46.01 45.505 46.01 45.505 45 45 C44.375 42.9375 44.375 42.9375 44 41 C43.34 41.99 42.68 42.98 42 44 C41.67 43.01 41.34 42.02 41 41 C38.03 41.495 38.03 41.495 35 42 C35 42.66 35 43.32 35 44 C34.34 44 33.68 44 33 44 C32.84724609 45.13308594 32.84724609 45.13308594 32.69140625 46.2890625 C31.92307087 49.30163173 31.13184138 50.24563912 28.9375 52.375 C25.49626372 56.11485595 23.07490847 60.04886214 20.6875 64.5 C20.35032959 65.11665527 20.01315918 65.73331055 19.66577148 66.36865234 C15.48239068 74.37614406 14.67445801 81.77983991 14.75 90.6875 C14.74226562 91.61111328 14.73453125 92.53472656 14.7265625 93.48632812 C14.73993029 98.12829277 14.88196657 101.77195599 17 106 C17.2475 107.0725 17.495 108.145 17.75 109.25 C19.3797061 114.1391183 21.99148353 117.85545518 25 122 C25.61875 122.886875 26.2375 123.77375 26.875 124.6875 C39.87664414 138.83634803 58.96506419 143.27000227 77 147 C77 147.33 77 147.66 77 148 C51.59 148 26.18 148 0 148 C0 99.16 0 50.32 0 0 Z " fill="#F5F6F6" transform="translate(0,0)"/>
<path d="M0 0 C3.96 0 7.92 0 12 0 C12 22.11 12 44.22 12 67 C12.66 67 13.32 67 14 67 C13.67 67.78375 13.34 68.5675 13 69.375 C11.88133489 71.84332497 11.88133489 71.84332497 12 74 C12.66 74 13.32 74 14 74 C14.33 74.99 14.66 75.98 15 77 C12.39869373 78.1734316 9.79431492 79.33892508 7.1875 80.5 C6.44951172 80.83386719 5.71152344 81.16773437 4.95117188 81.51171875 C4.23896484 81.82753906 3.52675781 82.14335938 2.79296875 82.46875 C2.1383667 82.76201172 1.48376465 83.05527344 0.80932617 83.35742188 C-1 84 -1 84 -4 84 C-4 84.66 -4 85.32 -4 86 C-6.31 85.67 -8.62 85.34 -11 85 C-10.34 84.34 -9.68 83.68 -9 83 C-10.72226496 79.75150023 -10.72226496 79.75150023 -14 79 C-14 75.04 -14 71.08 -14 67 C-15.11117187 67.04640625 -16.22234375 67.0928125 -17.3671875 67.140625 C-34.33563825 67.64446832 -34.33563825 67.64446832 -41 63 C-46.28968492 57.5905897 -48.15038161 53.00019609 -48.25 45.4375 C-48.15570183 37.12211618 -47.50284617 30.2364076 -41.625 24 C-36.45280326 19.08759397 -30.99095083 18.43550085 -24.078125 18.5546875 C-17.67614807 19.48086183 -13.53884551 23.1060363 -9.5625 28 C-6.61900383 33.65151264 -5.73735587 38.52726218 -5.44140625 44.828125 C-5.18765852 47.38399136 -5.18765852 47.38399136 -2 49 C-1.67 49.99 -1.34 50.98 -1 52 C-0.67 34.84 -0.34 17.68 0 0 Z " fill="#E4EBF0" transform="translate(190,33)"/>
<path d="M0 0 C3.79837998 0.00097189 7.59473257 -0.04075427 11.39282227 -0.08496094 C31.93931752 -0.18708412 47.9120158 2.85828147 65.50415039 13.50097656 C66.2427832 13.9328125 66.98141602 14.36464844 67.74243164 14.80957031 C76.43930639 20.38251222 82.84335219 30.85778375 85.31665039 40.75097656 C85.37852539 41.98847656 85.44040039 43.22597656 85.50415039 44.50097656 C85.57762695 45.48453125 85.65110352 46.46808594 85.72680664 47.48144531 C86.37297679 62.14453712 82.16585694 74.4298848 72.50415039 85.50097656 C71.92536133 86.17773438 71.34657227 86.85449219 70.75024414 87.55175781 C65.36732001 93.38429974 58.82766141 96.66151001 51.50415039 99.50097656 C51.16208994 95.11753521 50.98604395 90.87488567 51.50415039 86.50097656 C54.06665039 84.12597656 54.06665039 84.12597656 57.50415039 82.50097656 C66.20164377 75.41845399 72.32169467 65.08034977 73.85571289 53.95019531 C74.43045632 43.49893974 70.23845732 33.38504321 63.50415039 25.50097656 C60.71519918 22.80381362 58.24387183 20.74755038 54.50415039 19.50097656 C54.50415039 18.84097656 54.50415039 18.18097656 54.50415039 17.50097656 C53.72104492 17.24574219 53.72104492 17.24574219 52.92211914 16.98535156 C52.18606445 16.74300781 51.45000977 16.50066406 50.69165039 16.25097656 C49.4522168 15.84298828 49.4522168 15.84298828 48.18774414 15.42675781 C46.41657578 14.8157434 44.65768255 14.16775167 42.91430664 13.48144531 C36.79590589 11.08260097 30.96610577 9.75211812 24.44946289 8.89550781 C21.50415039 8.50097656 21.50415039 8.50097656 19.13476562 7.98461914 C16.51502926 7.50297666 14.12962386 7.37168641 11.46899414 7.36816406 C10.50533936 7.36582764 9.54168457 7.36349121 8.54882812 7.36108398 C3.20015412 7.38671996 -2.14757669 7.42985591 -7.49584961 7.50097656 C-8.83583008 7.51185303 -8.83583008 7.51185303 -10.20288086 7.52294922 C-37.43685522 7.83531401 -65.72740634 15.73215413 -89.87084961 28.25097656 C-92.49584961 29.50097656 -92.49584961 29.50097656 -95.49584961 29.50097656 C-95.49584961 28.18097656 -95.49584961 26.86097656 -95.49584961 25.50097656 C-73.10696072 12.50097656 -73.10696072 12.50097656 -65.49584961 12.50097656 C-65.49584961 11.84097656 -65.49584961 11.18097656 -65.49584961 10.50097656 C-61.4773374 9.38824912 -57.4556364 8.28747411 -53.43334961 7.18847656 C-52.31895508 6.87974609 -51.20456055 6.57101563 -50.05639648 6.25292969 C-46.54517547 5.29715319 -43.02364364 4.39349565 -39.49584961 3.50097656 C-38.43229248 3.20980957 -37.36873535 2.91864258 -36.27294922 2.61865234 C-24.32847676 -0.26928789 -12.22344161 -0.02201997 0 0 Z " fill="#0F61A6" transform="translate(159.495849609375,-0.5009765625)"/>
<path d="M0 0 C6.51516211 4.12051643 10.60566956 9.26779725 12.359375 16.8671875 C12.359375 20.1671875 12.359375 23.4671875 12.359375 26.8671875 C2.129375 26.8671875 -8.100625 26.8671875 -18.640625 26.8671875 C-15.80729167 34.53385417 -15.80729167 34.53385417 -12.640625 35.8671875 C-11.01896748 35.98867055 -9.39178173 36.04262402 -7.765625 36.0546875 C-6.90195313 36.06886719 -6.03828125 36.08304688 -5.1484375 36.09765625 C-2.50076534 35.85433435 -0.95049217 35.12211533 1.359375 33.8671875 C5.15842075 34.10462786 6.88810181 36.13113504 9.359375 38.8671875 C7.62469674 42.95484518 5.7915671 44.29216502 1.828125 46.1015625 C-5.61965466 48.41131695 -13.40535404 47.43846866 -20.44140625 44.27734375 C-25.06659306 41.31163782 -27.92349791 37.01856878 -29.640625 31.8671875 C-30.24411121 22.94255486 -30.68715399 13.2325852 -25.05859375 5.76953125 C-18.46111312 -1.23041007 -9.18707168 -3.94119939 0 0 Z " fill="#0A5FA5" transform="translate(171.640625,53.1328125)"/>
<path d="M0 0 C5.011875 -0.0825 10.02375 -0.165 15.1875 -0.25 C17.54684692 -0.30462402 17.54684692 -0.30462402 19.95385742 -0.36035156 C21.20013916 -0.3703418 22.4464209 -0.38033203 23.73046875 -0.390625 C25.00301514 -0.41157227 26.27556152 -0.43251953 27.58666992 -0.45410156 C31.58354469 0.07763344 33.24886677 1.09093681 36 4 C36 4.99 36 5.98 36 7 C36.66 7 37.32 7 38 7 C39.61301773 10.22603545 39.12053599 13.74710038 39.09765625 17.2890625 C39.0962413 18.10748627 39.09482635 18.92591003 39.09336853 19.76913452 C39.0877629 22.38779325 39.07520948 25.00636704 39.0625 27.625 C39.05748572 29.39843627 39.05292269 31.17187387 39.04882812 32.9453125 C39.03779164 37.29690782 39.02052325 41.6484395 39 46 C35.04 46 31.08 46 27 46 C26.67 34.45 26.34 22.9 26 11 C21.78362979 8.89181489 16.69776176 9.39148015 12 9 C12 21.21 12 33.42 12 46 C8.04 46 4.08 46 0 46 C0 30.82 0 15.64 0 0 Z " fill="#1163A7" transform="translate(70,53)"/>
<path d="M0 0 C3.63 0 7.26 0 11 0 C11 4.29 11 8.58 11 13 C13.97 13 16.94 13 20 13 C20 15.97 20 18.94 20 22 C17.03 22 14.06 22 11 22 C11 30.58 11 39.16 11 48 C13.97 48.66 16.94 49.32 20 50 C20 52.97 20 55.94 20 59 C8.59286676 59.40578735 8.59286676 59.40578735 4 57 C-0.94055834 51.56899372 -0.52547579 46.34221536 -0.390625 39.2578125 C-0.38496521 38.13430389 -0.37930542 37.01079529 -0.37347412 35.85324097 C-0.351144 32.27672109 -0.30095146 28.70121537 -0.25 25.125 C-0.22993076 22.695327 -0.21168073 20.26563825 -0.1953125 17.8359375 C-0.15128983 11.89023625 -0.08228337 5.94528988 0 0 Z " fill="#095EA5" transform="translate(118,40)"/>
<path d="M0 0 C3.63 0 7.26 0 11 0 C11 21.45 11 42.9 11 65 C2.67886389 62.62253254 2.67886389 62.62253254 0.67102051 59.07073975 C-0.90489232 54.20754213 -0.4764221 48.99809178 -0.390625 43.9453125 C-0.38496521 42.68862762 -0.37930542 41.43194275 -0.37347412 40.13717651 C-0.35492046 36.8126345 -0.31904929 33.48921038 -0.2746582 30.16497803 C-0.23357713 26.7663331 -0.21543592 23.3675722 -0.1953125 19.96875 C-0.1512658 13.31215355 -0.08224597 6.65622966 0 0 Z " fill="#085DA5" transform="translate(191,34)"/>
<path d="M0 0 C3.63 0 7.26 0 11 0 C11 15.18 11 30.36 11 46 C4 45 4 45 1.58691406 42.50732422 C-0.41489637 38.08301519 -0.51092881 34.6734277 -0.390625 29.8828125 C-0.38496521 29.02565643 -0.37930542 28.16850037 -0.37347412 27.28536987 C-0.35119639 24.5646632 -0.30101774 21.84530432 -0.25 19.125 C-0.2299238 17.27345661 -0.211675 15.42189244 -0.1953125 13.5703125 C-0.15136001 9.0463607 -0.08239359 4.52340836 0 0 Z " fill="#095FA8" transform="translate(48,53)"/>
<path d="M0 0 C6.51516211 4.12051643 10.60566956 9.26779725 12.359375 16.8671875 C12.359375 20.1671875 12.359375 23.4671875 12.359375 26.8671875 C2.129375 26.8671875 -8.100625 26.8671875 -18.640625 26.8671875 C-18.640625 26.5371875 -18.640625 26.2071875 -18.640625 25.8671875 C-9.070625 25.8671875 0.499375 25.8671875 10.359375 25.8671875 C10.029375 23.2271875 9.699375 20.5871875 9.359375 17.8671875 C7.379375 18.8571875 7.379375 18.8571875 5.359375 19.8671875 C5.359375 18.5471875 5.359375 17.2271875 5.359375 15.8671875 C4.699375 15.8671875 4.039375 15.8671875 3.359375 15.8671875 C3.029375 16.5271875 2.699375 17.1871875 2.359375 17.8671875 C2.029375 16.8771875 1.699375 15.8871875 1.359375 14.8671875 C1.029375 16.1871875 0.699375 17.5071875 0.359375 18.8671875 C-5.910625 18.8671875 -12.180625 18.8671875 -18.640625 18.8671875 C-17.54003804 13.3642527 -16.57223974 12.51797262 -12.640625 8.8671875 C-11.61248889 7.55542764 -10.59978068 6.2301982 -9.640625 4.8671875 C-13.07577502 4.24261477 -16.13127314 3.8671875 -19.640625 3.8671875 C-19.640625 2.8771875 -19.640625 1.8871875 -19.640625 0.8671875 C-13.38327212 -1.96460723 -6.43814173 -2.7619247 0 0 Z " fill="#0D63AD" transform="translate(171.640625,53.1328125)"/>
<path d="M0 0 C0.66 0 1.32 0 2 0 C2.33 2.64 2.66 5.28 3 8 C3.99 8 4.98 8 6 8 C6.66 5.69 7.32 3.38 8 1 C8.33 1 8.66 1 9 1 C10.31191997 7.95214281 10.11058058 14.88444903 10.0625 21.9375 C10.05798828 23.19369141 10.05347656 24.44988281 10.04882812 25.74414062 C10.03709681 28.82947663 10.020681 31.91471316 10 35 C6.7 35 3.4 35 0 35 C0 23.45 0 11.9 0 0 Z " fill="#065DA8" transform="translate(98,64)"/>
<path d="M0 0 C3.96 0 7.92 0 12 0 C12.33 0.99 12.66 1.98 13 3 C13.66 3.33 14.32 3.66 15 4 C15.66 3.34 16.32 2.68 17 2 C17 2.66 17 3.32 17 4 C17.66 4 18.32 4 19 4 C20.61301773 7.22603545 20.12053599 10.74710038 20.09765625 14.2890625 C20.0962413 15.10748627 20.09482635 15.92591003 20.09336853 16.76913452 C20.0877629 19.38779325 20.07520948 22.00636704 20.0625 24.625 C20.05748572 26.39843627 20.05292269 28.17187387 20.04882812 29.9453125 C20.03779164 34.29690782 20.02052325 38.6484395 20 43 C19.67 43 19.34 43 19 43 C18.97494385 42.21351074 18.9498877 41.42702148 18.92407227 40.61669922 C18.80767134 37.03598506 18.68514513 33.4555055 18.5625 29.875 C18.52318359 28.6375 18.48386719 27.4 18.44335938 26.125 C18.40146484 24.92617187 18.35957031 23.72734375 18.31640625 22.4921875 C18.27974854 21.39245605 18.24309082 20.29272461 18.20532227 19.15966797 C18.00316521 16.04870884 17.56710106 13.06355662 17 10 C16.27723119 13.96622597 15.83516596 17.80844744 15.68359375 21.8359375 C15.64169922 22.89941406 15.59980469 23.96289062 15.55664062 25.05859375 C15.51732422 26.15300781 15.47800781 27.24742188 15.4375 28.375 C15.39431641 29.49261719 15.35113281 30.61023438 15.30664062 31.76171875 C15.20102589 34.50770199 15.0989203 37.25376881 15 40 C14.67 40 14.34 40 14 40 C14 32.08 14 24.16 14 16 C13.34 16 12.68 16 12 16 C11.67 13.36 11.34 10.72 11 8 C10.34 8 9.68 8 9 8 C9 19.55 9 31.1 9 43 C8.67 43 8.34 43 8 43 C7.505 25.675 7.505 25.675 7 8 C4.43106162 6.71553081 2.23423663 6.67022856 -0.625 6.4375 C-2.12933594 6.31181641 -2.12933594 6.31181641 -3.6640625 6.18359375 C-4.43492188 6.12300781 -5.20578125 6.06242187 -6 6 C-1.72679547 3.15119698 0.78168857 1.71009381 6 2 C3.03 1.505 3.03 1.505 0 1 C0 0.67 0 0.34 0 0 Z " fill="#1E6BA8" transform="translate(89,56)"/>
<path d="M0 0 C0.66 0 1.32 0 2 0 C2.3125 2.6875 2.3125 2.6875 2 6 C1.24332031 6.74378906 0.48664062 7.48757812 -0.29296875 8.25390625 C-3.37156135 11.37692299 -4.85605416 14.30263011 -6.625 18.25 C-7.67047669 20.57642111 -8.7629044 22.76032929 -10 25 C-10.99 25.33 -11.98 25.66 -13 26 C-13.33 24.68 -13.66 23.36 -14 22 C-14.66 22 -15.32 22 -16 22 C-15.97679687 22.58007812 -15.95359375 23.16015625 -15.9296875 23.7578125 C-15.81513475 28.71631029 -16.39606258 32.28253701 -18 37 C-18.46236084 40.65823963 -18.75128169 44.32158714 -19 48 C-19.33 48 -19.66 48 -20 48 C-20.33 44.7 -20.66 41.4 -21 38 C-21 45.59 -21 53.18 -21 61 C-23.85904456 56.71143316 -23.32995429 52.98179027 -23.3125 47.9375 C-23.33666992 46.58108398 -23.33666992 46.58108398 -23.36132812 45.19726562 C-23.37396194 27.52255456 -14.03110541 14.07100957 -2 2 C-1.34 1.34 -0.68 0.68 0 0 Z " fill="#1664A8" transform="translate(37,43)"/>
<path d="M0 0 C0.33 0 0.66 0 1 0 C1 3.96 1 7.92 1 12 C2.32 11.34 3.64 10.68 5 10 C6.40533756 9.5845535 7.82287585 9.20799564 9.25 8.875 C10.4875 8.58625 11.725 8.2975 13 8 C13.33 9.65 13.66 11.3 14 13 C15.65 13.33 17.3 13.66 19 14 C18.95875 13.236875 18.9175 12.47375 18.875 11.6875 C19 9 19 9 21 6 C21.99 6 22.98 6 24 6 C24 7.32 24 8.64 24 10 C23.34 10 22.68 10 22 10 C22.23332031 10.74636719 22.46664062 11.49273437 22.70703125 12.26171875 C23 15 23 15 21.63671875 16.95703125 C20.67185547 17.87548828 20.67185547 17.87548828 19.6875 18.8125 C13.04089062 25.92159711 13.53901001 34.69498515 13 44 C12.67 44 12.34 44 12 44 C11.67 37.4 11.34 30.8 11 24 C7.7 23.67 4.4 23.34 1 23 C1 31.25 1 39.5 1 48 C0.67 48 0.34 48 0 48 C0 39.42 0 30.84 0 22 C2.97 22 5.94 22 9 22 C9 19.03 9 16.06 9 13 C6.03 13 3.06 13 0 13 C0 8.71 0 4.42 0 0 Z " fill="#EAECEE" transform="translate(129,40)"/>
<path d="M0 0 C0.66 1.32 1.32 2.64 2 4 C3.32 4 4.64 4 6 4 C6.33 3.01 6.66 2.02 7 1 C7.66 1.99 8.32 2.98 9 4 C9.70125 4.99 10.4025 5.98 11.125 7 C13 10 13 10 13 13 C11.35 13 9.7 13 8 13 C7.690625 13.61875 7.38125 14.2375 7.0625 14.875 C6.375 16.25 5.6875 17.625 5 19 C2.49609375 19.4140625 2.49609375 19.4140625 -0.5625 19.625 C-1.57441406 19.69976562 -2.58632812 19.77453125 -3.62890625 19.8515625 C-4.41136719 19.90054688 -5.19382813 19.94953125 -6 20 C-6.33 20.99 -6.66 21.98 -7 23 C-7.99 22.67 -8.98 22.34 -10 22 C-10 21.01 -10 20.02 -10 19 C-11.65 18.67 -13.3 18.34 -15 18 C-15 15.69 -15 13.38 -15 11 C-13.515 11.99 -13.515 11.99 -12 13 C-9.42286746 13.4562792 -6.90701715 13.82945276 -4.3125 14.125 C-3.61060547 14.21136719 -2.90871094 14.29773438 -2.18554688 14.38671875 C-0.45788855 14.59826875 1.2709566 14.800086 3 15 C3 12.03 3 9.06 3 6 C1.35 6 -0.3 6 -2 6 C-1.34 4.02 -0.68 2.04 0 0 Z " fill="#F7F8F7" transform="translate(135,84)"/>
<path d="M0 0 C2.5625718 -0.02710123 5.12485365 -0.04688771 7.6875 -0.0625 C8.40873047 -0.07087891 9.12996094 -0.07925781 9.87304688 -0.08789062 C13.73602781 -0.10552981 17.23580049 0.17496997 21 1 C22.60303627 1.06371368 24.20837672 1.08644214 25.8125 1.0625 C26.99779297 1.04896484 26.99779297 1.04896484 28.20703125 1.03515625 C28.79871094 1.02355469 29.39039063 1.01195313 30 1 C29.67 2.65 29.34 4.3 29 6 C28.01 6.33 27.02 6.66 26 7 C25.67 6.01 25.34 5.02 25 4 C24.34 4.66 23.68 5.32 23 6 C22.34 5.67 21.68 5.34 21 5 C20.67 5.99 20.34 6.98 20 8 C15.72094201 10.8304682 10.93988154 10.78334691 6 10 C2.71129865 7.6509276 1.29506987 6.27121298 0.37890625 2.32421875 C0.25386719 1.55722656 0.12882813 0.79023437 0 0 Z " fill="#F6F6F6" transform="translate(153,80)"/>
<path d="M0 0 C2.1462026 0.14029419 4.29196218 0.28738164 6.4375 0.4375 C7.63246094 0.51871094 8.82742187 0.59992187 10.05859375 0.68359375 C13 1 13 1 14 2 C14.17288539 4.63182711 14.28415053 7.23981106 14.3515625 9.875 C14.37471527 10.67349365 14.39786804 11.4719873 14.42172241 12.29467773 C14.46946837 13.99277148 14.5146891 15.69093778 14.55761719 17.38916016 C14.62400806 19.96156607 14.70206463 22.53342894 14.78125 25.10546875 C14.82623645 26.75779317 14.87052819 28.41013668 14.9140625 30.0625 C14.93796051 30.82224121 14.96185852 31.58198242 14.98648071 32.36474609 C15.10786108 37.66693057 14.67464475 42.73842275 14 48 C14.66 48.33 15.32 48.66 16 49 C14.515 49.495 14.515 49.495 13 50 C12.67 34.49 12.34 18.98 12 3 C8.04 2.67 4.08 2.34 0 2 C0 15.2 0 28.4 0 42 C-1 40 -2 38 -3 36 C-5.01669827 34.86649466 -5.01669827 34.86649466 -7 34 C-6.67 32.68 -6.34 31.36 -6 30 C-4.68 29.67 -3.36 29.34 -2 29 C-1.67 23.72 -1.34 18.44 -1 13 C-2.65 13.33 -4.3 13.66 -6 14 C-6.66 13.67 -7.32 13.34 -8 13 C-7.34 10.03 -6.68 7.06 -6 4 C-5.67 4.66 -5.34 5.32 -5 6 C-4.01 5.67 -3.02 5.34 -2 5 C-0.78130071 2.49552484 -0.78130071 2.49552484 0 0 Z " fill="#F6FBFC" transform="translate(47,50)"/>
<path d="M0 0 C1.32 0.33 2.64 0.66 4 1 C3.01 1 2.02 1 1 1 C0.7018576 4.7763932 0.7018576 4.7763932 2 7 C1.0553186 7.33209473 1.0553186 7.33209473 0.09155273 7.67089844 C-2.79564014 8.69031328 -5.67904439 9.72006399 -8.5625 10.75 C-9.55314453 11.09804688 -10.54378906 11.44609375 -11.56445312 11.8046875 C-15.90991756 13.36385746 -20.05414325 14.89487553 -24.02734375 17.265625 C-27 19 -27 19 -30 19 C-30 17.68 -30 16.36 -30 15 C-7.61111111 2 -7.61111111 2 0 2 C0 1.34 0 0.68 0 0 Z " fill="#1D67A5" transform="translate(94,10)"/>
<path d="M0 0 C0.804375 0.25523437 0.804375 0.25523437 1.625 0.515625 C7.14791573 2.22336868 12.70536643 3.72450147 18.3125 5.125 C18.99376953 5.29547852 19.67503906 5.46595703 20.37695312 5.64160156 C23.90374846 6.51376383 27.4303829 7.32336078 31 8 C31 8.33 31 8.66 31 9 C18.79 9 6.58 9 -6 9 C-5.67 7.02 -5.34 5.04 -5 3 C-3.35 3.33 -1.7 3.66 0 4 C0 2.68 0 1.36 0 0 Z " fill="#E9EFF2" transform="translate(46,139)"/>
<path d="M0 0 C4.29 0 8.58 0 13 0 C13 3.96 13 7.92 13 12 C8.71 12 4.42 12 0 12 C0 8.04 0 4.08 0 0 Z " fill="#4483B8" transform="translate(47,35)"/>
<path d="M0 0 C4.09538479 0.65818684 5.74126252 1.47920517 8.5 4.5625 C8.83 6.5425 9.16 8.5225 9.5 10.5625 C3.23 10.5625 -3.04 10.5625 -9.5 10.5625 C-8.25747197 4.34985983 -6.53271106 1.04989999 0 0 Z " fill="#F6FBF8" transform="translate(162.5,61.4375)"/>
<path d="M0 0 C-1.49707031 2.46948242 -1.49707031 2.46948242 -4 5 C-6.88845141 5.44711382 -9.17277067 5.58784719 -12.046875 5.48828125 C-13.20367767 5.47766914 -13.20367767 5.47766914 -14.3838501 5.46684265 C-16.84023212 5.43891578 -19.29431051 5.37618739 -21.75 5.3125 C-23.41793576 5.28741461 -25.08590736 5.26460185 -26.75390625 5.24414062 C-30.83682127 5.18909562 -34.91802049 5.10284057 -39 5 C-39 4.67 -39 4.34 -39 4 C-38.00202393 3.83395264 -38.00202393 3.83395264 -36.98388672 3.66455078 C-33.9467364 3.15633183 -30.9108828 2.64073431 -27.875 2.125 C-26.30492187 1.86396484 -26.30492187 1.86396484 -24.703125 1.59765625 C-4.17777543 -1.9098402 -4.17777543 -1.9098402 0 0 Z " fill="#E6EFF1" transform="translate(172,143)"/>
<path d="M0 0 C-1.98 0.99 -1.98 0.99 -4 2 C-2.68 2.33 -1.36 2.66 0 3 C-0.99 3.99 -1.98 4.98 -3 6 C-1.68 6.66 -0.36 7.32 1 8 C1 8.33 1 8.66 1 9 C4.66305234 9.74926071 7.42355152 10.2380014 11 9 C11.33 9.66 11.66 10.32 12 11 C9.04380781 12.1721449 6.08471211 13.33677476 3.125 14.5 C1.86236328 15.00080078 1.86236328 15.00080078 0.57421875 15.51171875 C-0.23144531 15.82753906 -1.03710938 16.14335937 -1.8671875 16.46875 C-2.61081543 16.76201172 -3.35444336 17.05527344 -4.12060547 17.35742188 C-6 18 -6 18 -8 18 C-8 17.34 -8 16.68 -8 16 C-4.7 14.68 -1.4 13.36 2 12 C0.68 11.67 -0.64 11.34 -2 11 C-2 10.34 -2 9.68 -2 9 C-5.67040419 7.44007822 -8.29528897 6.87408067 -12.1875 7.5 C-16 8 -16 8 -19 6 C-15.38438155 3.67424173 -11.88864704 2.10702784 -7.8125 0.75 C-6.24435547 0.21632813 -6.24435547 0.21632813 -4.64453125 -0.328125 C-2 -1 -2 -1 0 0 Z " fill="#1A68A9" transform="translate(184,120)"/>
<path d="M0 0 C3.15143994 2.57845086 4.07118488 5.07039756 5 9 C5 12.3 5 15.6 5 19 C-5.23 19 -15.46 19 -26 19 C-26 18.67 -26 18.34 -26 18 C-16.43 18 -6.86 18 3 18 C2.67 15.36 2.34 12.72 2 10 C0.02 10.99 0.02 10.99 -2 12 C-2 10.68 -2 9.36 -2 8 C-2.66 8 -3.32 8 -4 8 C-4.33 8.66 -4.66 9.32 -5 10 C-5.33 9.01 -5.66 8.02 -6 7 C-6.66 7 -7.32 7 -8 7 C-9.625 4.5 -9.625 4.5 -11 2 C-10.01 1.67 -9.02 1.34 -8 1 C-8 1.66 -8 2.32 -8 3 C-4.28263359 3.34900558 -4.28263359 3.34900558 -1.1875 1.5 C-0.795625 1.005 -0.40375 0.51 0 0 Z " fill="#3B7CB5" transform="translate(179,61)"/>
<path d="M0 0 C0.66 0 1.32 0 2 0 C2 15.51 2 31.02 2 47 C-3.625 41.375 -3.625 41.375 -3.8125 34.6875 C-3.86019531 33.43324219 -3.90789062 32.17898437 -3.95703125 30.88671875 C-3.97121094 29.93410156 -3.98539063 28.98148438 -4 28 C-3.34 28 -2.68 28 -2 28 C-2 30.97 -2 33.94 -2 37 C-1.34 37 -0.68 37 0 37 C-0.49688008 28.97591531 -1.01974901 20.98204378 -2 13 C-1.34 12.67 -0.68 12.34 0 12 C0 8.04 0 4.08 0 0 Z " fill="#FAF8F6" transform="translate(187,38)"/>
<path d="M0 0 C-0.33 11.22 -0.66 22.44 -1 34 C-1.33 32.68 -1.66 31.36 -2 30 C-3.32 30 -4.64 30 -6 30 C-6.125 24.25 -6.125 24.25 -5 22 C-4.01 22 -3.02 22 -2 22 C-2 20.68 -2 19.36 -2 18 C-3.65 18 -5.3 18 -7 18 C-6.67 16.35 -6.34 14.7 -6 13 C-5.01 12.67 -4.02 12.34 -3 12 C-3 10.68 -3 9.36 -3 8 C-4.32 8 -5.64 8 -7 8 C-6.75 4.625 -6.75 4.625 -6 1 C-3.56217182 -0.88735085 -2.80901846 -1.40450923 0 0 Z " fill="#FBFAF9" transform="translate(70,56)"/>
<path d="M0 0 C2.73058469 1.04404709 4.1850125 2.66465669 6.125 4.8125 C4.39404305 8.89138865 2.55722396 10.20890344 -1.3671875 12.0625 C-6.11412734 13.48214556 -10.97504363 13.10649738 -15.875 12.8125 C-15.875 12.4825 -15.875 12.1525 -15.875 11.8125 C-11.42 11.3175 -11.42 11.3175 -6.875 10.8125 C-6.545 9.4925 -6.215 8.1725 -5.875 6.8125 C-5.215 6.1525 -4.555 5.4925 -3.875 4.8125 C-6.845 4.4825 -9.815 4.1525 -12.875 3.8125 C-12.875 3.4825 -12.875 3.1525 -12.875 2.8125 C-12.24851563 2.67972656 -11.62203125 2.54695313 -10.9765625 2.41015625 C-10.15929687 2.23355469 -9.34203125 2.05695313 -8.5 1.875 C-7.28183594 1.61396484 -7.28183594 1.61396484 -6.0390625 1.34765625 C-0.41969854 -0.04196985 -0.41969854 -0.04196985 0 0 Z " fill="#1665A6" transform="translate(174.875,87.1875)"/>
<path d="M0 0 C1.38294718 0.01329757 2.76582404 0.03715018 4.1484375 0.0703125 C4.85484375 0.07933594 5.56125 0.08835938 6.2890625 0.09765625 C8.03399848 0.12123647 9.77876045 0.15710789 11.5234375 0.1953125 C11.1934375 1.1853125 10.8634375 2.1753125 10.5234375 3.1953125 C12.8334375 3.8553125 15.1434375 4.5153125 17.5234375 5.1953125 C11.84165306 8.67057871 4.24961201 7.83756546 -2.10546875 6.7421875 C-3.91278549 6.28955003 -5.69885816 5.75302367 -7.4765625 5.1953125 C-6.8165625 4.8653125 -6.1565625 4.5353125 -5.4765625 4.1953125 C-5.4765625 3.5353125 -5.4765625 2.8753125 -5.4765625 2.1953125 C-3.4765625 0.1953125 -3.4765625 0.1953125 0 0 Z " fill="#0A5FA5" transform="translate(175.4765625,-0.1953125)"/>
<path d="M0 0 C2.97 1.32 5.94 2.64 9 4 C9 4.66 9 5.32 9 6 C9.66 6.66 10.32 7.32 11 8 C9.35 8.33 7.7 8.66 6 9 C6.99 9.33 7.98 9.66 9 10 C9 11.65 9 13.3 9 15 C8.01 15 7.02 15 6 15 C7.25541557 17.51083114 8.50063488 17.87125446 11 19 C10.34 19.33 9.68 19.66 9 20 C6.50390625 18.890625 6.50390625 18.890625 3.5625 17.25 C2.59441406 16.71890625 1.62632813 16.1878125 0.62890625 15.640625 C-1.61382241 14.24100236 -3.25712839 12.96146907 -5 11 C-2.36 11 0.28 11 3 11 C1.35 10.67 -0.3 10.34 -2 10 C0.05233685 7.7522025 1.00667261 6.9977758 4 6 C4 5.34 4 4.68 4 4 C3.34 4 2.68 4 2 4 C1.67 4.66 1.34 5.32 1 6 C0.67 4.02 0.34 2.04 0 0 Z " fill="#1768AC" transform="translate(39,120)"/>
<path d="M0 0 C0.33 0 0.66 0 1 0 C1 1.98 1 3.96 1 6 C3.31 6.33 5.62 6.66 8 7 C7.79503906 7.64324219 7.59007812 8.28648438 7.37890625 8.94921875 C5.18737343 16.29976664 4.35267598 23.35057967 4 31 C3.67 31 3.34 31 3 31 C2.67 24.4 2.34 17.8 2 11 C-1.3 10.67 -4.6 10.34 -8 10 C-8 18.25 -8 26.5 -8 35 C-8.33 35 -8.66 35 -9 35 C-9 26.42 -9 17.84 -9 9 C-6.03 9 -3.06 9 0 9 C0 6.03 0 3.06 0 0 Z " fill="#ADCBE0" transform="translate(138,53)"/>
<path d="M0 0 C1.65 0 3.3 0 5 0 C5 2.97 5 5.94 5 9 C5.99 9.33 6.98 9.66 8 10 C7.01 11.32 6.02 12.64 5 14 C5 12.68 5 11.36 5 10 C4.01 10 3.02 10 2 10 C1.8453125 10.8971875 1.8453125 10.8971875 1.6875 11.8125 C1 14 1 14 -0.5 15.375 C-2.63192217 17.68458235 -2.5542128 19.94317347 -3 23 C-4.33333333 25 -5.66666667 27 -7 29 C-7.56817302 30.21714128 -8.11003752 31.44690856 -8.625 32.6875 C-9.07875 33.780625 -9.5325 34.87375 -10 36 C-12.13864716 29.79510921 -8.00007072 24.05801589 -5.3125 18.52734375 C-0.13473253 8.45078334 -0.13473253 8.45078334 4 7 C4 5.02 4 3.04 4 1 C2.02 2.32 0.04 3.64 -2 5 C-2 4.01 -2 3.02 -2 2 C-1.34 2 -0.68 2 0 2 C0 1.34 0 0.68 0 0 Z " fill="#E4ECED" transform="translate(35,42)"/>
<path d="M0 0 C2 3 2 3 2 7 C0.68 7.33 -0.64 7.66 -2 8 C-2.33 9.65 -2.66 11.3 -3 13 C-3.99 13 -4.98 13 -6 13 C-6.433125 12.195625 -6.86625 11.39125 -7.3125 10.5625 C-8.8059981 7.66843898 -8.8059981 7.66843898 -12.1875 7.1875 C-13.5796875 7.0946875 -13.5796875 7.0946875 -15 7 C-11.99422513 4.99615009 -9.15022736 3.73880258 -5.8125 2.375 C-4.72582031 1.92898437 -3.63914063 1.48296875 -2.51953125 1.0234375 C-1.68808594 0.68570313 -0.85664063 0.34796875 0 0 Z " fill="#E9EEF1" transform="translate(201,128)"/>
<path d="M0 0 C0.33 0 0.66 0 1 0 C1 14.19 1 28.38 1 43 C-6 42 -6 42 -7.9375 40.0625 C-9 38 -9 38 -9 36 C-7.68 36 -6.36 36 -5 36 C-4.67 35.34 -4.34 34.68 -4 34 C-3.01 34.99 -2.02 35.98 -1 37 C-0.67 24.79 -0.34 12.58 0 0 Z " fill="#125E9F" transform="translate(58,56)"/>
<path d="M0 0 C0.66 0.99 1.32 1.98 2 3 C1.34 3 0.68 3 0 3 C0.02320313 3.58007812 0.04640625 4.16015625 0.0703125 4.7578125 C0.18486525 9.71631029 -0.39606258 13.28253701 -2 18 C-2.46236084 21.65823963 -2.75128169 25.32158714 -3 29 C-3.33 29 -3.66 29 -4 29 C-4.33 25.7 -4.66 22.4 -5 19 C-5 26.59 -5 34.18 -5 42 C-7.85904456 37.71143316 -7.32995429 33.98179027 -7.3125 28.9375 C-7.33666992 27.58108398 -7.33666992 27.58108398 -7.36132812 26.19726562 C-7.36830202 16.44078636 -4.5752819 8.51949043 0 0 Z " fill="#2C71AA" transform="translate(21,62)"/>
<path d="M0 0 C2 3.75 2 3.75 2 6 C-6.58 6 -15.16 6 -24 6 C-24 6.66 -24 7.32 -24 8 C-15.42 8 -6.84 8 2 8 C2 8.33 2 8.66 2 9 C-6.58 9 -15.16 9 -24 9 C-24.33 9.66 -24.66 10.32 -25 11 C-25 8.36 -25 5.72 -25 3 C-16.75 3.33 -8.5 3.66 0 4 C0 2.68 0 1.36 0 0 Z " fill="#0161B1" transform="translate(176,69)"/>
<path d="M0 0 C8.25 0 16.5 0 25 0 C24.67 1.32 24.34 2.64 24 4 C23.01 4.495 23.01 4.495 22 5 C21.67 5.66 21.34 6.32 21 7 C13.96354423 5.11380178 6.96640656 3.13072305 0 1 C0 0.67 0 0.34 0 0 Z " fill="#ECF3F4" transform="translate(192,0)"/>
<path d="M0 0 C0.91007813 0.10183594 1.82015625 0.20367187 2.7578125 0.30859375 C3.45648438 0.39238281 4.15515625 0.47617188 4.875 0.5625 C4.875 1.2225 4.875 1.8825 4.875 2.5625 C7.35 3.5525 7.35 3.5525 9.875 4.5625 C9.875 6.2125 9.875 7.8625 9.875 9.5625 C7.895 8.9025 5.915 8.2425 3.875 7.5625 C3.875 6.9025 3.875 6.2425 3.875 5.5625 C1.895 5.8925 -0.085 6.2225 -2.125 6.5625 C-2.455 5.9025 -2.785 5.2425 -3.125 4.5625 C-5.14169827 3.42899466 -5.14169827 3.42899466 -7.125 2.5625 C-7.125 1.9025 -7.125 1.2425 -7.125 0.5625 C-4.50184968 -0.74907516 -2.89466564 -0.33399988 0 0 Z " fill="#0961A9" transform="translate(209.125,7.4375)"/>
<path d="M0 0 C5.75 0.75 5.75 0.75 8 3 C7.67028521 6.29714793 7.3773161 7.6226839 5 10 C1.375 9.625 1.375 9.625 -2 9 C-2.25 3.375 -2.25 3.375 0 0 Z " fill="#AAC9D7" transform="translate(213,33)"/>
<path d="M0 0 C2.80923788 4.88514058 2.69258053 9.50009581 2 15 C0.41199342 20.17530201 -1.57856541 25.15713081 -4 30 C-4.66 30 -5.32 30 -6 30 C-6 28.68 -6 27.36 -6 26 C-6.66 25.34 -7.32 24.68 -8 24 C-6.68 23.67 -5.36 23.34 -4 23 C-4.061875 21.576875 -4.061875 21.576875 -4.125 20.125 C-4 17 -4 17 -2 15 C-1.34 15.33 -0.68 15.66 0 16 C0 13.03 0 10.06 0 7 C-0.99 7 -1.98 7 -3 7 C-3 6.34 -3 5.68 -3 5 C-2.34 4.67 -1.68 4.34 -1 4 C-0.34786708 1.97536745 -0.34786708 1.97536745 0 0 Z " fill="#E7EFEF" transform="translate(232,41)"/>
<path d="M0 0 C0.33 0.66 0.66 1.32 1 2 C2.98 2 4.96 2 7 2 C7 2.99 7 3.98 7 5 C5.68 5.33 4.36 5.66 3 6 C3.33 10.62 3.66 15.24 4 20 C3.34 20 2.68 20 2 20 C2 18.68 2 17.36 2 16 C1.01 16 0.02 16 -1 16 C-1.02692484 13.70839681 -1.04636124 11.41670454 -1.0625 9.125 C-1.07410156 7.84882812 -1.08570313 6.57265625 -1.09765625 5.2578125 C-1 2 -1 2 0 0 Z " fill="#F4F2F3" transform="translate(208,80)"/>
<path d="M0 0 C7.16496181 -0.53737214 12.49773192 -0.56052765 18.57421875 3.515625 C20.27196123 5.28313772 20.61683019 6.60902036 21 9 C19.3125 10.625 19.3125 10.625 17 12 C14.4375 11.25 14.4375 11.25 12 10 C11.01 9.67 10.02 9.34 9 9 C9.99 8.67 10.98 8.34 12 8 C12 7.01 12 6.02 12 5 C12.61875 5.33 13.2375 5.66 13.875 6 C15.91018344 7.14193235 15.91018344 7.14193235 18 7 C17.01 6.34 16.02 5.68 15 5 C15 4.34 15 3.68 15 3 C12.36 3 9.72 3 7 3 C7 2.67 7 2.34 7 2 C4.69 1.67 2.38 1.34 0 1 C0 0.67 0 0.34 0 0 Z " fill="#0E5D9F" transform="translate(158,53)"/>
<path d="M0 0 C-0.99 0.495 -0.99 0.495 -2 1 C-2 1.66 -2 2.32 -2 3 C-2.886875 3.144375 -3.77375 3.28875 -4.6875 3.4375 C-7.47117646 3.91019978 -10.23483757 4.43070185 -13 5 C-13 5.33 -13 5.66 -13 6 C-14.65 6 -16.3 6 -18 6 C-18.33 6.66 -18.66 7.32 -19 8 C-19 7.34 -19 6.68 -19 6 C-19.66 6 -20.32 6 -21 6 C-21.33 7.32 -21.66 8.64 -22 10 C-21.34 10 -20.68 10 -20 10 C-20.33 10.99 -20.66 11.98 -21 13 C-22.32 13 -23.64 13 -25 13 C-25 11.68 -25 10.36 -25 9 C-26.32 8.34 -27.64 7.68 -29 7 C-25.10742998 5.82225034 -21.21046365 4.65976173 -17.3125 3.5 C-16.20970703 3.16613281 -15.10691406 2.83226562 -13.97070312 2.48828125 C-12.3706543 2.01455078 -12.3706543 2.01455078 -10.73828125 1.53125 C-9.75899658 1.23798828 -8.77971191 0.94472656 -7.77075195 0.64257812 C-5.07159672 0.01660433 -2.75845795 -0.12328304 0 0 Z " fill="#E2E9EA" transform="translate(122,10)"/>
<path d="M0 0 C6.97669157 -0.39325819 12.51656189 0.36903961 19 3 C16 5 16 5 14 5 C13.67 5.99 13.34 6.98 13 8 C12.34 7.34 11.68 6.68 11 6 C11.33 4.68 11.66 3.36 12 2 C9.36 2.66 6.72 3.32 4 4 C4.33 4.66 4.66 5.32 5 6 C4.34 6 3.68 6 3 6 C2.67 6.99 2.34 7.98 2 9 C1.34 8.67 0.68 8.34 0 8 C0 5.36 0 2.72 0 0 Z " fill="#F3F3F1" transform="translate(184,9)"/>
<path d="M0 0 C0 0.66 0 1.32 0 2 C0.66 2.33 1.32 2.66 2 3 C1.34 3 0.68 3 0 3 C-0.309375 3.639375 -0.61875 4.27875 -0.9375 4.9375 C-2 7 -2 7 -3 8 C-7.61982692 8.26149964 -9.77484052 8.11257974 -14 6 C-9.545 5.505 -9.545 5.505 -5 5 C-6.98 4.34 -8.96 3.68 -11 3 C-11 2.01 -11 1.02 -11 0 C-6.94952424 -1.35015859 -4.2079832 -0.62084998 0 0 Z " fill="#1265AB" transform="translate(195,1)"/>
<path d="M0 0 C3.96 0 7.92 0 12 0 C11.67 1.65 11.34 3.3 11 5 C10.360625 5.103125 9.72125 5.20625 9.0625 5.3125 C8.381875 5.539375 7.70125 5.76625 7 6 C6.67 6.99 6.34 7.98 6 9 C3.5067466 8.00269864 2.22532561 7.34925469 0.75 5.0625 C0 3 0 3 0 0 Z " fill="#F3F2F1" transform="translate(153,80)"/>
<path d="M0 0 C3.4375 0.8125 3.4375 0.8125 7 2 C7.33 2.99 7.66 3.98 8 5 C3.95305422 7.65942151 0.59615682 9.4911648 -4.3125 8.5625 C-4.869375 8.376875 -5.42625 8.19125 -6 8 C-6 7.01 -6 6.02 -6 5 C-5.01 5 -4.02 5 -3 5 C-2.67 4.34 -2.34 3.68 -2 3 C-1.34 3.33 -0.68 3.66 0 4 C0 2.68 0 1.36 0 0 Z " fill="#0B63B0" transform="translate(223,79)"/>
<path d="M0 0 C3.63 0 7.26 0 11 0 C11 3.3 11 6.6 11 10 C7.37 10 3.74 10 0 10 C0 9.01 0 8.02 0 7 C2.31 7 4.62 7 7 7 C6.67 5.68 6.34 4.36 6 3 C6.99 3 7.98 3 9 3 C9.33 2.34 9.66 1.68 10 1 C6.7 1 3.4 1 0 1 C0 0.67 0 0.34 0 0 Z " fill="#0D5DA2" transform="translate(48,36)"/>
<path d="M0 0 C1.875 0.3125 1.875 0.3125 4 1 C6 4 6 4 6 8 C-0.27 8 -6.54 8 -13 8 C-12.67 7.01 -12.34 6.02 -12 5 C-12 5.66 -12 6.32 -12 7 C-10.02 6.67 -8.04 6.34 -6 6 C-6 5.34 -6 4.68 -6 4 C-3.36 4 -0.72 4 2 4 C2 3.34 2 2.68 2 2 C1.34 2 0.68 2 0 2 C0 1.34 0 0.68 0 0 Z " fill="#D5E3E8" transform="translate(166,64)"/>
<path d="M0 0 C1.485 0.99 1.485 0.99 3 2 C5.57713254 2.4562792 8.09298285 2.82945276 10.6875 3.125 C11.7403418 3.25455078 11.7403418 3.25455078 12.81445312 3.38671875 C14.54211145 3.59826875 16.2709566 3.800086 18 4 C18 4.33 18 4.66 18 5 C13.71 5 9.42 5 5 5 C6.98 5.66 8.96 6.32 11 7 C9.515 9.475 9.515 9.475 8 12 C7.01 11.67 6.02 11.34 5 11 C5 10.01 5 9.02 5 8 C3.35 7.67 1.7 7.34 0 7 C0 4.69 0 2.38 0 0 Z " fill="#EEF0F3" transform="translate(120,95)"/>
<path d="M0 0 C3.99138612 3.65877061 6.74451114 7.03792451 9 12 C8.25 14.4375 8.25 14.4375 7 16 C6.34 15.34 5.68 14.68 5 14 C4.34 14.66 3.68 15.32 3 16 C3.33 14.35 3.66 12.7 4 11 C2.35 10.67 0.7 10.34 -1 10 C-0.34 9.67 0.32 9.34 1 9 C0.67 6.03 0.34 3.06 0 0 Z " fill="#F3F1EC" transform="translate(222,24)"/>
<path d="M0 0 C8.25 0 16.5 0 25 0 C25 0.33 25 0.66 25 1 C21.73172393 1.70005804 18.46007824 2.38286244 15.1875 3.0625 C14.25873047 3.26166016 13.32996094 3.46082031 12.37304688 3.66601562 C11.0340332 3.94155273 11.0340332 3.94155273 9.66796875 4.22265625 C8.43469849 4.48187866 8.43469849 4.48187866 7.17651367 4.74633789 C5 5 5 5 2 4 C2 3.34 2 2.68 2 2 C1.34 1.34 0.68 0.68 0 0 Z " fill="#E2EBF0" transform="translate(110,0)"/>
<path d="M0 0 C1.66666667 1.66666667 3.33333333 3.33333333 5 5 C5.86625 5.845625 6.7325 6.69125 7.625 7.5625 C9.63083473 9.62111985 11.34964689 11.65476137 13 14 C9.85320318 13.65035591 8.36610595 13.37830948 6.125 11.0625 C3.35035399 8.36946122 0.71430176 7.85714656 -3 7 C-3.33 5.35 -3.66 3.7 -4 2 C-2.68 2 -1.36 2 0 2 C0 1.34 0 0.68 0 0 Z " fill="#E6ECED" transform="translate(21,118)"/>
<path d="M0 0 C0.33 0 0.66 0 1 0 C1 3.96 1 7.92 1 12 C2.32 11.34 3.64 10.68 5 10 C6.40533756 9.5845535 7.82287585 9.20799564 9.25 8.875 C10.4875 8.58625 11.725 8.2975 13 8 C13.99 10.64 14.98 13.28 16 16 C15.01 16 14.02 16 13 16 C13 16.66 13 17.32 13 18 C12.34 17.67 11.68 17.34 11 17 C11 16.01 11 15.02 11 14 C7.37 13.67 3.74 13.34 0 13 C0 8.71 0 4.42 0 0 Z " fill="#D7E2EC" transform="translate(129,40)"/>
<path d="M0 0 C0.66 1.32 1.32 2.64 2 4 C3.32 4 4.64 4 6 4 C6.33 3.01 6.66 2.02 7 1 C9.1723491 4.25852365 11.07119658 7.59244728 13 11 C12.34 11 11.68 11 11 11 C10.34 10.01 9.68 9.02 9 8 C7.68 8 6.36 8 5 8 C4.67 10.31 4.34 12.62 4 15 C3.67 15 3.34 15 3 15 C3 12.03 3 9.06 3 6 C1.35 6 -0.3 6 -2 6 C-1.34 4.02 -0.68 2.04 0 0 Z " fill="#C0D4E3" transform="translate(135,84)"/>
<path d="M0 0 C0.99 0.33 1.98 0.66 3 1 C2.625 2.9375 2.625 2.9375 2 5 C-0.89924366 6.44962183 -3.52300355 6.22126481 -6.7578125 6.31640625 C-7.75238968 6.3475779 -7.75238968 6.3475779 -8.76705933 6.37937927 C-10.88626694 6.44479231 -13.005599 6.50372105 -15.125 6.5625 C-16.56121081 6.60569309 -17.99740902 6.64930764 -19.43359375 6.69335938 C-22.95559594 6.80046499 -26.47773825 6.90175575 -30 7 C-30 6.34 -30 5.68 -30 5 C-26.8614522 3.9538174 -24.84426233 3.93918792 -21.5625 4.04296875 C-20.50289062 4.06423828 -19.44328125 4.08550781 -18.3515625 4.10742188 C-16.11687697 4.16081471 -13.88244072 4.22592424 -11.6484375 4.30273438 C-10.58882812 4.32013672 -9.52921875 4.33753906 -8.4375 4.35546875 C-7.46683594 4.38278076 -6.49617188 4.41009277 -5.49609375 4.43823242 C-2.83545532 4.23362912 -2.83545532 4.23362912 -1.16015625 1.9777832 C-0.58587891 0.99878052 -0.58587891 0.99878052 0 0 Z " fill="#FBFDF9" transform="translate(99,46)"/>
<path d="M0 0 C0 0.99 0 1.98 0 3 C0.66 3 1.32 3 2 3 C2 3.66 2 4.32 2 5 C2.99 4.67 3.98 4.34 5 4 C5.33 5.32 5.66 6.64 6 8 C4.296875 8.68359375 4.296875 8.68359375 2 9 C-0.359375 7.78515625 -0.359375 7.78515625 -2.75 6.0625 C-3.54921875 5.49660156 -4.3484375 4.93070313 -5.171875 4.34765625 C-5.77515625 3.90292969 -6.3784375 3.45820313 -7 3 C-3.375 0 -3.375 0 0 0 Z " fill="#E2E9EC" transform="translate(227,8)"/>
<path d="M0 0 C0.33 1.98 0.66 3.96 1 6 C1.99 6.33 2.98 6.66 4 7 C3.67 8.65 3.34 10.3 3 12 C2.01 11.67 1.02 11.34 0 11 C0 9.35 0 7.7 0 6 C-0.99 6.33 -1.98 6.66 -3 7 C-3.99 6.01 -4.98 5.02 -6 4 C-2.25 0 -2.25 0 0 0 Z " fill="#F8F9F7" transform="translate(187,84)"/>
<path d="M0 0 C0.33 0.99 0.66 1.98 1 3 C1.99 3 2.98 3 4 3 C4 4.65 4 6.3 4 8 C3.34 8 2.68 8 2 8 C1.67 7.34 1.34 6.68 1 6 C0.34 6 -0.32 6 -1 6 C-1.33 6.99 -1.66 7.98 -2 9 C-2.66 9 -3.32 9 -4 9 C-4.66 8.34 -5.32 7.68 -6 7 C-6.66 7.66 -7.32 8.32 -8 9 C-10.125 8.625 -10.125 8.625 -12 8 C-11.38511719 7.67386719 -10.77023438 7.34773438 -10.13671875 7.01171875 C-8.92435547 6.35623047 -8.92435547 6.35623047 -7.6875 5.6875 C-6.88699219 5.25824219 -6.08648437 4.82898438 -5.26171875 4.38671875 C-3.16212728 3.09940446 -1.64552279 1.81593292 0 0 Z " fill="#DFE9EE" transform="translate(228,88)"/>
<path d="M0 0 C-0.33 1.32 -0.66 2.64 -1 4 C-2.32 4 -3.64 4 -5 4 C-5 2.68 -5 1.36 -5 0 C-5.845625 0.144375 -6.69125 0.28875 -7.5625 0.4375 C-13.78992186 1.45653267 -19.69044585 2.2474335 -26 2 C-26 1.67 -26 1.34 -26 1 C-18.52653144 -0.92863705 -7.15402369 -3.57701184 0 0 Z " fill="#BBCCDE" transform="translate(148,8)"/>
<path d="M0 0 C1 3 1 3 1 5 C2.65 5.33 4.3 5.66 6 6 C6 6.99 6 7.98 6 9 C5.34 9.66 4.68 10.32 4 11 C3.67 9.68 3.34 8.36 3 7 C0.36 7 -2.28 7 -5 7 C-3.70700306 4.11562221 -2.34058637 2.12780579 0 0 Z " fill="#1665A6" transform="translate(150,56)"/>
<path d="M0 0 C1.65 0 3.3 0 5 0 C5.66 1.98 6.32 3.96 7 6 C3.04 6 -0.92 6 -5 6 C-3.68 5.67 -2.36 5.34 -1 5 C-0.67 3.35 -0.34 1.7 0 0 Z " fill="#E8EFF0" transform="translate(52,29)"/>
<path d="M0 0 C3.1875 -0.3125 3.1875 -0.3125 7 0 C9.9375 2.5 9.9375 2.5 12 5 C8.57056481 6.18771723 6.62215325 5.80226223 3.25 4.5625 C2.45078125 4.27503906 1.6515625 3.98757812 0.828125 3.69140625 C0.22484375 3.46324219 -0.3784375 3.23507813 -1 3 C-0.67 2.01 -0.34 1.02 0 0 Z " fill="#1669AB" transform="translate(51,138)"/>
<path d="M0 0 C0 5.61 0 11.22 0 17 C-0.66 15.68 -1.32 14.36 -2 13 C-2.66 12.34 -3.32 11.68 -4 11 C-4.30078125 8.90625 -4.30078125 8.90625 -4.3125 6.5 C-4.32925781 5.7059375 -4.34601563 4.911875 -4.36328125 4.09375 C-4.18345703 3.05734375 -4.18345703 3.05734375 -4 2 C-1 0 -1 0 0 0 Z " fill="#045697" transform="translate(206,109)"/>
<path d="M0 0 C2.01047161 2.51308951 4.01982946 5.0254065 6 7.5625 C7.88479868 9.85959839 9.86259447 11.93893038 12 14 C11.01 14.495 11.01 14.495 10 15 C10 14.34 10 13.68 10 13 C8.35 13.33 6.7 13.66 5 14 C5 12.68 5 11.36 5 10 C4.01 9.67 3.02 9.34 2 9 C2 7.68 2 6.36 2 5 C1.34 5 0.68 5 0 5 C0 3.35 0 1.7 0 0 Z " fill="#2569A1" transform="translate(27,106)"/>
<path d="M0 0 C0.66 0.33 1.32 0.66 2 1 C2.33 2.65 2.66 4.3 3 6 C-4.92 6 -12.84 6 -21 6 C-20.67 4.68 -20.34 3.36 -20 2 C-20 2.99 -20 3.98 -20 5 C-13.73 5 -7.46 5 -1 5 C-0.67 3.35 -0.34 1.7 0 0 Z " fill="#0F5792" transform="translate(173,67)"/>
<path d="M0 0 C0 0.33 0 0.66 0 1 C-3.63 1.33 -7.26 1.66 -11 2 C-8.525 2.99 -8.525 2.99 -6 4 C-6 4.33 -6 4.66 -6 5 C-8.31 5 -10.62 5 -13 5 C-13 4.34 -13 3.68 -13 3 C-15.64 2.67 -18.28 2.34 -21 2 C-21 1.67 -21 1.34 -21 1 C-13.98194143 -0.10087193 -7.09434233 -0.09733092 0 0 Z " fill="#045FA8" transform="translate(157,0)"/>
<path d="M0 0 C0.99 0.33 1.98 0.66 3 1 C2.67 1.99 2.34 2.98 2 4 C2.99 4.33 3.98 4.66 5 5 C5.33 6.98 5.66 8.96 6 11 C5.34 11 4.68 11 4 11 C3.79375 10.401875 3.5875 9.80375 3.375 9.1875 C1.49073918 6.18981233 -0.81132084 5.38638224 -4 4 C-3.67 3.01 -3.34 2.02 -3 1 C-2.01 1 -1.02 1 0 1 C0 0.67 0 0.34 0 0 Z " fill="#D4E3E7" transform="translate(177,83)"/>
<path d="M0 0 C0 0.33 0 0.66 0 1 C-3.3 1.33 -6.6 1.66 -10 2 C-10 2.99 -10 3.98 -10 5 C-11.98 5.33 -13.96 5.66 -16 6 C-16.66 5.01 -17.32 4.02 -18 3 C-12.27544841 -0.81636773 -6.70250505 -0.29282789 0 0 Z " fill="#3C7EB7" transform="translate(169,52)"/>
<path d="M0 0 C1.65 0 3.3 0 5 0 C5 2.97 5 5.94 5 9 C5.99 9.33 6.98 9.66 8 10 C7.01 11.32 6.02 12.64 5 14 C5 12.68 5 11.36 5 10 C3.35 10 1.7 10 0 10 C0.66 9.01 1.32 8.02 2 7 C2.66 7 3.32 7 4 7 C4 5.02 4 3.04 4 1 C2.02 2.32 0.04 3.64 -2 5 C-2 4.01 -2 3.02 -2 2 C-1.34 2 -0.68 2 0 2 C0 1.34 0 0.68 0 0 Z " fill="#D3E1EE" transform="translate(35,42)"/>
<path d="M0 0 C1.98 0 3.96 0 6 0 C6.66 2.31 7.32 4.62 8 7 C7.01 7.33 6.02 7.66 5 8 C5 7.34 5 6.68 5 6 C4.01 6 3.02 6 2 6 C2 4.68 2 3.36 2 2 C1.34 2 0.68 2 0 2 C0 1.34 0 0.68 0 0 Z " fill="#F9FBFA" transform="translate(153,102)"/>
<path d="M0 0 C0.66 0.33 1.32 0.66 2 1 C1.814375 1.78375 1.62875 2.5675 1.4375 3.375 C0.74037734 5.97089775 0.74037734 5.97089775 2 8 C1.38125 7.814375 0.7625 7.62875 0.125 7.4375 C-2.04160178 6.76313824 -2.04160178 6.76313824 -4 8 C-3.34 6.68 -2.68 5.36 -2 4 C-1.34 4 -0.68 4 0 4 C-0.33 3.01 -0.66 2.02 -1 1 C-0.67 0.67 -0.34 0.34 0 0 Z M7 3 C7 5 7 7 7 9 C5.68 9 4.36 9 3 9 C2.67 8.01 2.34 7.02 2 6 C3.65 5.01 5.3 4.02 7 3 Z " fill="#0965AF" transform="translate(229,71)"/>
<path d="M0 0 C0.33 0.99 0.66 1.98 1 3 C2.32 3 3.64 3 5 3 C5.103125 3.61875 5.20625 4.2375 5.3125 4.875 C5.87525373 7.36526484 5.87525373 7.36526484 9 9 C6.03 9 3.06 9 0 9 C0 6.03 0 3.06 0 0 Z " fill="#FAFCFB" transform="translate(130,43)"/>
<path d="M0 0 C0 0.66 0 1.32 0 2 C1.98 2 3.96 2 6 2 C3 4 3 4 0 4 C0 4.66 0 5.32 0 6 C-4.455 5.01 -4.455 5.01 -9 4 C-8.67 3.01 -8.34 2.02 -8 1 C-2.25 0 -2.25 0 0 0 Z " fill="#0965AF" transform="translate(128,3)"/>
<path d="M0 0 C0.78310547 0.30744141 0.78310547 0.30744141 1.58203125 0.62109375 C7.70748632 2.86316049 13.50382011 3.64787062 20 4 C20 4.33 20 4.66 20 5 C11.585 5.495 11.585 5.495 3 6 C2.01 4.02 1.02 2.04 0 0 Z " fill="#CCDEEB" transform="translate(150,96)"/>
<path d="M0 0 C0.99 0 1.98 0 3 0 C3.33 1.32 3.66 2.64 4 4 C3.34 4 2.68 4 2 4 C2 4.66 2 5.32 2 6 C0.02 6.99 0.02 6.99 -2 8 C-2.33 7.67 -2.66 7.34 -3 7 C-4.51469448 6.76807135 -6.03754562 6.58784762 -7.5625 6.4375 C-8.38878906 6.35371094 -9.21507812 6.26992188 -10.06640625 6.18359375 C-10.70449219 6.12300781 -11.34257812 6.06242187 -12 6 C-12 5.67 -12 5.34 -12 5 C-6.555 4.505 -6.555 4.505 -1 4 C-1 3.01 -1 2.02 -1 1 C-0.67 0.67 -0.34 0.34 0 0 Z " fill="#F1EFEC" transform="translate(172,46)"/>
<path d="M0 0 C0 2.64 0 5.28 0 8 C-0.99 8.33 -1.98 8.66 -3 9 C-3.66 8.34 -4.32 7.68 -5 7 C-4.34 7 -3.68 7 -3 7 C-3 5.35 -3 3.7 -3 2 C-4.32 1.67 -5.64 1.34 -7 1 C-3.375 -1.125 -3.375 -1.125 0 0 Z " fill="#1969AF" transform="translate(203,112)"/>
<path d="M0 0 C0.66 0.99 1.32 1.98 2 3 C0.02 6.63 -1.96 10.26 -4 14 C-4.33 14 -4.66 14 -5 14 C-5.66 11.36 -6.32 8.72 -7 6 C-6.01 6 -5.02 6 -4 6 C-3.34 5.01 -2.68 4.02 -2 3 C-1.34 2.01 -0.68 1.02 0 0 Z " fill="#E9F1F4" transform="translate(23,54)"/>
<path d="M0 0 C1.32 0.66 2.64 1.32 4 2 C4 2.99 4 3.98 4 5 C5.65 4.67 7.3 4.34 9 4 C9.33 4.66 9.66 5.32 10 6 C5.25 9 5.25 9 3 9 C3 7.35 3 5.7 3 4 C1.68 4 0.36 4 -1 4 C-0.67 2.68 -0.34 1.36 0 0 Z " fill="#E6ECEE" transform="translate(60,24)"/>
<path d="M0 0 C0 1.65 0 3.3 0 5 C-0.66 5 -1.32 5 -2 5 C-1.34 5.66 -0.68 6.32 0 7 C-2.97 6.505 -2.97 6.505 -6 6 C-6 4.02 -6 2.04 -6 0 C-3.50907189 -1.24546405 -2.58919267 -0.7767578 0 0 Z " fill="#7194AC" transform="translate(217,36)"/>
<path d="M0 0 C0.66 0.33 1.32 0.66 2 1 C-4.47685525 6.87435709 -4.47685525 6.87435709 -9 7 C-9.66 6.34 -10.32 5.68 -11 5 C-9.730447 4.35165346 -8.45930294 3.70642185 -7.1875 3.0625 C-6.47980469 2.70285156 -5.77210937 2.34320312 -5.04296875 1.97265625 C-3 1 -3 1 0 0 Z " fill="#DBE8ED" transform="translate(80,22)"/>
<path d="M0 0 C0.66 0 1.32 0 2 0 C2.13277344 0.68707031 2.26554687 1.37414062 2.40234375 2.08203125 C2.57894531 2.98308594 2.75554687 3.88414063 2.9375 4.8125 C3.19853516 6.15248047 3.19853516 6.15248047 3.46484375 7.51953125 C3.97741153 10.11397171 3.97741153 10.11397171 5 13 C2.29672807 11.97462099 0.9960688 10.99528256 -0.875 8.75 C-2 6 -2 6 -1.1875 2.6875 C-0.795625 1.800625 -0.40375 0.91375 0 0 Z " fill="#2369A6" transform="translate(120,85)"/>
<path d="M0 0 C-0.99 0.495 -0.99 0.495 -2 1 C-2 1.66 -2 2.32 -2 3 C-7.63130846 4.06538268 -13.29566266 4.52294688 -19 5 C-16.07382565 3.0492171 -13.97955419 2.28486538 -10.625 1.375 C-9.68914062 1.11460938 -8.75328125 0.85421875 -7.7890625 0.5859375 C-5.09876365 0.02074867 -2.73855429 -0.10954217 0 0 Z " fill="#BED1E1" transform="translate(122,10)"/>
<path d="M0 0 C0 1.98 0 3.96 0 6 C-1.1446875 5.9071875 -1.1446875 5.9071875 -2.3125 5.8125 C-5.04525312 5.74101915 -5.04525312 5.74101915 -6.8125 7.5 C-7.4003125 8.2425 -7.4003125 8.2425 -8 9 C-8.66 8.67 -9.32 8.34 -10 8 C-8.71451591 6.66070495 -7.42141845 5.32871357 -6.125 4 C-5.04605469 2.88625 -5.04605469 2.88625 -3.9453125 1.75 C-2 0 -2 0 0 0 Z " fill="#29679D" transform="translate(39,43)"/>
<path d="M0 0 C0.99 0.99 1.98 1.98 3 3 C2.34 3.66 1.68 4.32 1 5 C0.67 5.66 0.34 6.32 0 7 C-1.65 6.67 -3.3 6.34 -5 6 C-5 4.68 -5 3.36 -5 2 C-3.35 2 -1.7 2 0 2 C0 1.34 0 0.68 0 0 Z " fill="#EBF0F1" transform="translate(148,95)"/>
<path d="M0 0 C-1.375 1.5 -1.375 1.5 -3 3 C-3.66 3 -4.32 3 -5 3 C-4.67 7.62 -4.34 12.24 -4 17 C-4.66 17 -5.32 17 -6 17 C-6 11.39 -6 5.78 -6 0 C-3 -1 -3 -1 0 0 Z " fill="#C3D9E7" transform="translate(216,83)"/>
<path d="M0 0 C1.98 0 3.96 0 6 0 C5.67 0.99 5.34 1.98 5 3 C4.34 3 3.68 3 3 3 C3.33 4.32 3.66 5.64 4 7 C2.68 6.67 1.36 6.34 0 6 C0 6.66 0 7.32 0 8 C-0.66 8 -1.32 8 -2 8 C-2 6.68 -2 5.36 -2 4 C-1.01 4 -0.02 4 1 4 C0.67 2.68 0.34 1.36 0 0 Z " fill="#F1EFEC" transform="translate(66,48)"/>
<path d="M0 0 C4.71403788 0.47939368 8.66579301 0.96834048 13 3 C10 5 10 5 8 5 C7.67 5.99 7.34 6.98 7 8 C6.34 7.34 5.68 6.68 5 6 C5.375 3.875 5.375 3.875 6 2 C4.35 2 2.7 2 1 2 C0.67 1.34 0.34 0.68 0 0 Z " fill="#CEDAE6" transform="translate(190,9)"/>
<path d="M0 0 C1.485 0.99 1.485 0.99 3 2 C5.57713254 2.4562792 8.09298285 2.82945276 10.6875 3.125 C11.7403418 3.25455078 11.7403418 3.25455078 12.81445312 3.38671875 C14.54211145 3.59826875 16.2709566 3.800086 18 4 C18 4.33 18 4.66 18 5 C17.01257813 4.98839844 16.02515625 4.97679688 15.0078125 4.96484375 C13.72648438 4.95582031 12.44515625 4.94679688 11.125 4.9375 C9.21074219 4.92009766 9.21074219 4.92009766 7.2578125 4.90234375 C4.11335348 4.76823431 4.11335348 4.76823431 2 6 C1.34 5.67 0.68 5.34 0 5 C0 3.35 0 1.7 0 0 Z " fill="#CBD9E5" transform="translate(120,95)"/>
<path d="M0 0 C-0.3125 1.9375 -0.3125 1.9375 -1 4 C-1.99 4.33 -2.98 4.66 -4 5 C-4.33 3.68 -4.66 2.36 -5 1 C-2 0 -2 0 0 0 Z M-6 3 C-5.67 3 -5.34 3 -5 3 C-5 5.64 -5 8.28 -5 11 C-5.99 11.495 -5.99 11.495 -7 12 C-6.67 9.03 -6.34 6.06 -6 3 Z " fill="#EFEFEF" transform="translate(90,85)"/>
<path d="M0 0 C1 2 1 2 1 5 C1.33 5.66 1.66 6.32 2 7 C2.66 7 3.32 7 4 7 C4 7.66 4 8.32 4 9 C0.50765756 9.09978121 -2.59437148 8.77842938 -6 8 C-4.02 5.36 -2.04 2.72 0 0 Z " fill="#2368A5" transform="translate(226,72)"/>
<path d="M0 0 C0.33 0.66 0.66 1.32 1 2 C1.99 2.33 2.98 2.66 4 3 C2.02 5.31 0.04 7.62 -2 10 C-2.99 9.34 -3.98 8.68 -5 8 C-4.360625 7.608125 -3.72125 7.21625 -3.0625 6.8125 C-0.56221181 4.61527704 -0.35049575 3.24208567 0 0 Z " fill="#0F5E9E" transform="translate(231,78)"/>
<path d="M0 0 C1.24727575 2.4945515 0.88934597 3.39371494 0.25 6.0625 C0.09015625 6.77535156 -0.0696875 7.48820312 -0.234375 8.22265625 C-0.48703125 8.80917969 -0.7396875 9.39570312 -1 10 C-1.99 10.33 -2.98 10.66 -4 11 C-5.4606285 8.35261084 -6 7.10551666 -6 4 C-5.01 4.33 -4.02 4.66 -3 5 C-2.01 3.35 -1.02 1.7 0 0 Z " fill="#E2E7EB" transform="translate(212,32)"/>
<path d="M0 0 C3.1875 0.875 3.1875 0.875 6 2 C3.06171403 4.50298434 0.82097239 5.46930939 -3 6 C-3 4.68 -3 3.36 -3 2 C-2.01 1.34 -1.02 0.68 0 0 Z " fill="#2E70A8" transform="translate(67,23)"/>
<path d="M0 0 C0.33 0 0.66 0 1 0 C1 5.61 1 11.22 1 17 C1.66 17.33 2.32 17.66 3 18 C3 18.99 3 19.98 3 21 C2.34 21 1.68 21 1 21 C1 20.34 1 19.68 1 19 C-0.32 18.67 -1.64 18.34 -3 18 C-2.34 17.67 -1.68 17.34 -1 17 C-0.67 11.39 -0.34 5.78 0 0 Z " fill="#D8EDF1" transform="translate(206,109)"/>
<path d="M0 0 C0.928125 0.0825 1.85625 0.165 2.8125 0.25 C3.1425 1.24 3.4725 2.23 3.8125 3.25 C2.8225 3.25 1.8325 3.25 0.8125 3.25 C0.8125 3.91 0.8125 4.57 0.8125 5.25 C-1.4975 4.92 -3.8075 4.59 -6.1875 4.25 C-4.36434338 1.00883268 -3.82500054 0.30000004 0 0 Z " fill="#E6EAEA" transform="translate(185.1875,113.75)"/>
<path d="M0 0 C0.33 0 0.66 0 1 0 C1.33 1.65 1.66 3.3 2 5 C4.31 4.34 6.62 3.68 9 3 C9 3.66 9 4.32 9 5 C3.82421875 8.22265625 3.82421875 8.22265625 2 9 C1.01 8.67 0.02 8.34 -1 8 C-0.67 5.36 -0.34 2.72 0 0 Z " fill="#17619F" transform="translate(214,88)"/>
<path d="M0 0 C2.35119399 3.52679099 2.21443452 5.02879485 2.125 9.1875 C2.10695312 10.27417969 2.08890625 11.36085938 2.0703125 12.48046875 C2.03550781 13.72763672 2.03550781 13.72763672 2 15 C1.67 15 1.34 15 1 15 C0.67 12.36 0.34 9.72 0 7 C-0.99 6.67 -1.98 6.34 -3 6 C-3 5.01 -3 4.02 -3 3 C-2.34 3 -1.68 3 -1 3 C-0.67 2.01 -0.34 1.02 0 0 Z " fill="#1C66A1" transform="translate(181,64)"/>
<path d="M0 0 C-0.66 1.32 -1.32 2.64 -2 4 C-4.97 3.67 -7.94 3.34 -11 3 C-4.33333333 -1.44444444 -4.33333333 -1.44444444 0 0 Z " fill="#2C77B2" transform="translate(197,115)"/>
<path d="M0 0 C0.33 0.66 0.66 1.32 1 2 C2.32 1.67 3.64 1.34 5 1 C5 2.65 5 4.3 5 6 C3.35 6.33 1.7 6.66 0 7 C0 4.69 0 2.38 0 0 Z " fill="#E3E6EA" transform="translate(23,78)"/>
<path d="M0 0 C1.15006091 3.37299744 0.85199953 5.34853215 -0.3125 8.6875 C-0.57675781 9.47511719 -0.84101563 10.26273438 -1.11328125 11.07421875 C-2 13 -2 13 -4 14 C-3.53328373 8.58609132 -2.75702189 4.79482068 0 0 Z " fill="#DAECF4" transform="translate(28,64)"/>
<path d="M0 0 C2 1 2 1 4 4 C2.35 4.33 0.7 4.66 -1 5 C-1.33 6.32 -1.66 7.64 -2 9 C-2.66 8.67 -3.32 8.34 -4 8 C-3.34 6.02 -2.68 4.04 -2 2 C-1.34 2 -0.68 2 0 2 C0 1.34 0 0.68 0 0 Z " fill="#E9ECEE" transform="translate(211,42)"/>
<path d="M0 0 C2.00720923 0.28674418 4.0085944 0.61866701 6 1 C5.67 2.32 5.34 3.64 5 5 C3.35 5.33 1.7 5.66 0 6 C-0.38218767 4.34385343 -0.71395102 2.67542976 -1 1 C-0.67 0.67 -0.34 0.34 0 0 Z " fill="#FBFBFC" transform="translate(120,12)"/>
<path d="M0 0 C0.99 0 1.98 0 3 0 C3 0.66 3 1.32 3 2 C4.98 2.66 6.96 3.32 9 4 C6.42786866 5.61949011 5.32330841 6.04408751 2.25 5.625 C1.5075 5.41875 0.765 5.2125 0 5 C0 3.35 0 1.7 0 0 Z " fill="#0B59A1" transform="translate(117,4)"/>
<path d="M0 0 C2.475 0.495 2.475 0.495 5 1 C5 1.99 5 2.98 5 4 C5.99 4.33 6.98 4.66 8 5 C5.125 5.625 5.125 5.625 2 6 C1.34 5.34 0.68 4.68 0 4 C0 2.68 0 1.36 0 0 Z " fill="#DEE6E9" transform="translate(104,1)"/>
<path d="M0 0 C7.48291572 6.15034169 7.48291572 6.15034169 10 10 C6.43949035 9.69481346 4.99964963 8.99971192 2.1875 6.6875 C0 4 0 4 0 0 Z " fill="#D5E7ED" transform="translate(24,122)"/>
<path d="M0 0 C2.97 0.495 2.97 0.495 6 1 C5.01 2.485 5.01 2.485 4 4 C3.34 4 2.68 4 2 4 C1.67 4.99 1.34 5.98 1 7 C0.67 6.01 0.34 5.02 0 4 C-0.66 3.67 -1.32 3.34 -2 3 C-1.34 2.01 -0.68 1.02 0 0 Z " fill="#EBEDEE" transform="translate(205,102)"/>
<path d="M0 0 C1.65 0.33 3.3 0.66 5 1 C5.33 1.99 5.66 2.98 6 4 C3.36 4.33 0.72 4.66 -2 5 C-2 4.01 -2 3.02 -2 2 C-1.34 2 -0.68 2 0 2 C0 1.34 0 0.68 0 0 Z " fill="#F8FAFC" transform="translate(194,98)"/>
<path d="M0 0 C0 1.65 0 3.3 0 5 C0.66 5 1.32 5 2 5 C2 5.66 2 6.32 2 7 C2.99 7 3.98 7 5 7 C4.67 7.66 4.34 8.32 4 9 C3.01 8.67 2.02 8.34 1 8 C1 7.34 1 6.68 1 6 C-0.98 5.34 -2.96 4.68 -5 4 C-4.67 3.01 -4.34 2.02 -4 1 C-1 0 -1 0 0 0 Z " fill="#EBEEED" transform="translate(68,96)"/>
<path d="M0 0 C2.1723491 3.25852365 4.07119658 6.59244728 6 10 C5.34 10 4.68 10 4 10 C3.34 9.01 2.68 8.02 2 7 C0.68 7 -0.64 7 -2 7 C-2.33 6.01 -2.66 5.02 -3 4 C-2.34 4 -1.68 4 -1 4 C-0.67 2.68 -0.34 1.36 0 0 Z " fill="#D7E6F1" transform="translate(142,85)"/>
<path d="M0 0 C0.99 0.66 1.98 1.32 3 2 C-0.01490557 3.00496852 -2.04181692 3.10335303 -5.1875 3.0625 C-6.53908203 3.04896484 -6.53908203 3.04896484 -7.91796875 3.03515625 C-8.60503906 3.02355469 -9.29210937 3.01195312 -10 3 C-3.66666667 -1.22222222 -3.66666667 -1.22222222 0 0 Z " fill="#03559C" transform="translate(93,59)"/>
<path d="M0 0 C1.65 0 3.3 0 5 0 C5.33 0.99 5.66 1.98 6 3 C5.01 3.99 4.02 4.98 3 6 C2.01 5.67 1.02 5.34 0 5 C0 3.35 0 1.7 0 0 Z " fill="#FCFBFA" transform="translate(40,46)"/>
<path d="M0 0 C2.98191427 1.04367 3.8747545 2.22328366 5.5 4.875 C3.85 5.205 2.2 5.535 0.5 5.875 C0.5 5.215 0.5 4.555 0.5 3.875 C-1.48 3.215 -3.46 2.555 -5.5 1.875 C-2.5 -0.125 -2.5 -0.125 0 0 Z " fill="#1A6AAB" transform="translate(213.5,13.125)"/>
<path d="M0 0 C-0.99 0.495 -0.99 0.495 -2 1 C-2 1.66 -2 2.32 -2 3 C-5.81489674 4.46726798 -8.29011622 3.43336419 -12 2 C-12 1.67 -12 1.34 -12 1 C-7.9472484 0.01751476 -4.16138263 -0.08159574 0 0 Z " fill="#D5E3ED" transform="translate(212,1)"/>
<path d="M0 0 C-2 3 -2 3 -4.875 3.8125 C-8.07588583 4.00455315 -9.36609075 3.72217143 -12 2 C-7.82262526 0.40861915 -4.46839215 -0.21278058 0 0 Z " fill="#15619F" transform="translate(152,129)"/>
<path d="M0 0 C3.96 0 7.92 0 12 0 C12 0.33 12 0.66 12 1 C11.05125 1.12375 10.1025 1.2475 9.125 1.375 C5.91332809 1.71687177 5.91332809 1.71687177 4 4 C1.875 3.625 1.875 3.625 0 3 C0 2.01 0 1.02 0 0 Z " fill="#CEDFEC" transform="translate(97,99)"/>
<path d="M0 0 C1.74627478 2.61941217 2.38722388 4.03824877 3 7 C1.02 7.33 -0.96 7.66 -3 8 C-2.67 6.35 -2.34 4.7 -2 3 C-1.34 3 -0.68 3 0 3 C0 2.01 0 1.02 0 0 Z " fill="#E3E8EE" transform="translate(117,88)"/>
<path d="M0 0 C0.66 1.32 1.32 2.64 2 4 C1.01 4.33 0.02 4.66 -1 5 C-1 6.98 -1 8.96 -1 11 C-1.99 10.67 -2.98 10.34 -4 10 C-4.33 9.01 -4.66 8.02 -5 7 C-4.00390625 5.17578125 -4.00390625 5.17578125 -2.5625 3.3125 C-2.08941406 2.68988281 -1.61632812 2.06726563 -1.12890625 1.42578125 C-0.75636719 0.95527344 -0.38382813 0.48476562 0 0 Z " fill="#D9E1E5" transform="translate(237,77)"/>
<path d="M0 0 C0.66 0.33 1.32 0.66 2 1 C0.75747321 1.84443568 -0.4943886 2.6751458 -1.75 3.5 C-2.79414062 4.19609375 -2.79414062 4.19609375 -3.859375 4.90625 C-6 6 -6 6 -10 6 C-9.67 4.68 -9.34 3.36 -9 2 C-7.88625 1.855625 -6.7725 1.71125 -5.625 1.5625 C-2.17857953 1.21627965 -2.17857953 1.21627965 0 0 Z " fill="#FCFBFA" transform="translate(78,26)"/>
<path d="M0 0 C0.91007813 0.10183594 1.82015625 0.20367187 2.7578125 0.30859375 C3.45648438 0.39238281 4.15515625 0.47617188 4.875 0.5625 C4.545 1.2225 4.215 1.8825 3.875 2.5625 C2.41707116 2.61649736 0.95857288 2.65529177 -0.5 2.6875 C-1.31210938 2.71070313 -2.12421875 2.73390625 -2.9609375 2.7578125 C-5.125 2.5625 -5.125 2.5625 -7.125 0.5625 C-4.50184968 -0.74907516 -2.89466564 -0.33399988 0 0 Z " fill="#045EA9" transform="translate(209.125,7.4375)"/>
<path d="M0 0 C-0.33 0.99 -0.66 1.98 -1 3 C-5.455 3.495 -5.455 3.495 -10 4 C-6.32379932 0.32379932 -5.15439554 0 0 0 Z " fill="#0C5C9F" transform="translate(116,5)"/>
<path d="M0 0 C2.475 0.495 2.475 0.495 5 1 C5 2.32 5 3.64 5 5 C5.66 5 6.32 5 7 5 C7.33 6.98 7.66 8.96 8 11 C5.0843836 7.45960866 2.49872182 3.8373228 0 0 Z " fill="#D6E8F2" transform="translate(234,21)"/>
<path d="M0 0 C4.62 0 9.24 0 14 0 C11.23465355 1.8435643 10.12936982 2.36798724 7 2.8125 C6.319375 2.92207031 5.63875 3.03164063 4.9375 3.14453125 C3 3 3 3 0 0 Z " fill="#1360A7" transform="translate(92,13)"/>
<path d="M0 0 C2.0625 0.4375 2.0625 0.4375 4 1 C4 1.66 4 2.32 4 3 C6.64 3 9.28 3 12 3 C12 3.33 12 3.66 12 4 C8.04 4 4.08 4 0 4 C-0.33 3.01 -0.66 2.02 -1 1 C-0.67 0.67 -0.34 0.34 0 0 Z " fill="#F9F7F3" transform="translate(57,144)"/>
<path d="M0 0 C0.66 0.33 1.32 0.66 2 1 C0.75023244 4.65316671 0.32901247 5.78065836 -3 8 C-3.66 7.01 -4.32 6.02 -5 5 C-3.35 3.35 -1.7 1.7 0 0 Z " fill="#EDEFF0" transform="translate(23,127)"/>
<path d="M0 0 C0.33 0.66 0.66 1.32 1 2 C1.66 2.33 2.32 2.66 3 3 C-0.6441774 5.4294516 -2.71241272 5.16179575 -7 5 C-4.702779 3.25728062 -2.40133271 1.60088848 0 0 Z " fill="#D7E4ED" transform="translate(180,94)"/>
<path d="M0 0 C1.65 0.33 3.3 0.66 5 1 C1.85408067 3.80045623 -0.067064 4.35261589 -4.25 4.1875 C-5.14203125 4.16042969 -6.0340625 4.13335937 -6.953125 4.10546875 C-7.96632812 4.05326172 -7.96632812 4.05326172 -9 4 C-5.52452927 2.05433049 -3.87493656 1.92362873 0 3 C0 2.01 0 1.02 0 0 Z " fill="#DAEAF1" transform="translate(168,86)"/>
<path d="M0 0 C1.65 0 3.3 0 5 0 C4.67 0.61875 4.34 1.2375 4 1.875 C2.85806765 3.91018344 2.85806765 3.91018344 3 6 C3.99 6 4.98 6 6 6 C6 6.99 6 7.98 6 9 C3.5067466 8.00269864 2.22532561 7.34925469 0.75 5.0625 C0 3 0 3 0 0 Z " fill="#CEE4F0" transform="translate(153,80)"/>
<path d="M0 0 C4.875 1.75 4.875 1.75 6 4 C5.01 5.485 5.01 5.485 4 7 C1 5 1 5 0.3125 2.375 C0.209375 1.59125 0.10625 0.8075 0 0 Z " fill="#1D6AAA" transform="translate(100,54)"/>
<path d="M0 0 C0.99 0.495 0.99 0.495 2 1 C2.625 3.0625 2.625 3.0625 3 5 C3 4.34 3 3.68 3 3 C3.66 3 4.32 3 5 3 C5 3.66 5 4.32 5 5 C5.66 5 6.32 5 7 5 C7 5.66 7 6.32 7 7 C4.69 6.67 2.38 6.34 0 6 C0 4.02 0 2.04 0 0 Z " fill="#F6FBFB" transform="translate(139,53)"/>
<path d="M0 0 C2.02558881 3.34939881 2.21738987 5.86962551 2.125 9.75 C2.10695312 10.73484375 2.08890625 11.7196875 2.0703125 12.734375 C2.03550781 13.85585938 2.03550781 13.85585938 2 15 C1.67 15 1.34 15 1 15 C0.67 12.36 0.34 9.72 0 7 C-0.99 7 -1.98 7 -3 7 C-3 6.34 -3 5.68 -3 5 C-2.34 4.67 -1.68 4.34 -1 4 C-0.34786708 1.97536745 -0.34786708 1.97536745 0 0 Z " fill="#B6D1E3" transform="translate(232,41)"/>
<path d="M0 0 C3.76687864 0 4.91190305 0.23537317 8 2 C5.86437246 4.13562754 4.93453261 4.63318342 2 5 C1.34 4.34 0.68 3.68 0 3 C0 2.01 0 1.02 0 0 Z " fill="#DEE8EF" transform="translate(211,19)"/>
<path d="M0 0 C2.475 0.495 2.475 0.495 5 1 C4.67 2.32 4.34 3.64 4 5 C2.68 5.33 1.36 5.66 0 6 C0 4.02 0 2.04 0 0 Z " fill="#EFEFEF" transform="translate(0,1)"/>
<path d="M0 0 C2.97 0.495 2.97 0.495 6 1 C5.67 2.32 5.34 3.64 5 5 C3.35 4.67 1.7 4.34 0 4 C0 2.68 0 1.36 0 0 Z " fill="#ECEEEB" transform="translate(29,131)"/>
<path d="M0 0 C2.97 0.33 5.94 0.66 9 1 C5.55549263 3.29633824 3.06187717 3.54016485 -1 4 C-0.67 2.68 -0.34 1.36 0 0 Z " fill="#E4F2F4" transform="translate(161,122)"/>
<path d="M0 0 C1.32 0.66 2.64 1.32 4 2 C0.47320901 4.35119399 -1.02879485 4.21443452 -5.1875 4.125 C-6.27417969 4.10695313 -7.36085937 4.08890625 -8.48046875 4.0703125 C-9.72763672 4.03550781 -9.72763672 4.03550781 -11 4 C-11 3.67 -11 3.34 -11 3 C-5.555 2.505 -5.555 2.505 0 2 C0 1.34 0 0.68 0 0 Z " fill="#286AA6" transform="translate(170,96)"/>
<path d="M0 0 C4.875 4.625 4.875 4.625 6 8 C5.01 8.66 4.02 9.32 3 10 C3 9.01 3 8.02 3 7 C2.01 7.495 2.01 7.495 1 8 C0.67 5.36 0.34 2.72 0 0 Z " fill="#D5E5EC" transform="translate(222,24)"/>
<path d="M0 0 C1.32 0 2.64 0 4 0 C4 1.32 4 2.64 4 4 C4.99 4.33 5.98 4.66 7 5 C3.06329512 6.31223496 0.87511856 5.24296256 -3 4 C-2.505 3.525625 -2.01 3.05125 -1.5 2.5625 C0.11542197 1.24076302 0.11542197 1.24076302 0 0 Z " fill="#ECEFEC" transform="translate(133,8)"/>
<path d="M0 0 C2.64 0 5.28 0 8 0 C8 1.32 8 2.64 8 4 C5.33333333 3.33333333 2.66666667 2.66666667 0 2 C0 1.34 0 0.68 0 0 Z " fill="#1763A5" transform="translate(152,139)"/>
<path d="M0 0 C2 3 2 3 2 7 C1.01 6.67 0.02 6.34 -1 6 C-1 5.01 -1 4.02 -1 3 C-2.32 2.67 -3.64 2.34 -5 2 C-3.35 1.34 -1.7 0.68 0 0 Z " fill="#DAE5EC" transform="translate(201,128)"/>
<path d="M0 0 C0.66 0 1.32 0 2 0 C1.65120368 3.25543229 0.97866739 4.01873107 -1.5625 6.25 C-2.366875 6.8275 -3.17125 7.405 -4 8 C-4.33 7.01 -4.66 6.02 -5 5 C-4.01 5 -3.02 5 -2 5 C-1.34 3.35 -0.68 1.7 0 0 Z " fill="#E5EFF4" transform="translate(221,74)"/>
<path d="M0 0 C0.66 0 1.32 0 2 0 C2.33 1.65 2.66 3.3 3 5 C1.35 5.33 -0.3 5.66 -2 6 C-2 2 -2 2 0 0 Z " fill="#F2EEEF" transform="translate(184,56)"/>
<path d="M0 0 C2.5654594 2.5654594 2.54046087 4.47686668 3 8 C2.01 8.33 1.02 8.66 0 9 C-0.33 8.67 -0.66 8.34 -1 8 C-0.82364548 5.30917128 -0.38164079 2.67148554 0 0 Z " fill="#2D75B5" transform="translate(241,32)"/>
<path d="M0 0 C1.5 1.3125 1.5 1.3125 3 3 C3 3.99 3 4.98 3 6 C1.35 6 -0.3 6 -2 6 C-2.33 4.68 -2.66 3.36 -3 2 C-2.01 2 -1.02 2 0 2 C0 1.34 0 0.68 0 0 Z " fill="#EAEEED" transform="translate(219,22)"/>
<path d="M0 0 C2.875 -0.125 2.875 -0.125 6 0 C6.66 0.66 7.32 1.32 8 2 C2.06 2.495 2.06 2.495 -4 3 C-2.68 2.67 -1.36 2.34 0 2 C0 1.34 0 0.68 0 0 Z " fill="#C7DDE6" transform="translate(136,129)"/>
<path d="M0 0 C1.98 0 3.96 0 6 0 C5.67 1.65 5.34 3.3 5 5 C4.01 5.33 3.02 5.66 2 6 C2 5.01 2 4.02 2 3 C1.34 2.67 0.68 2.34 0 2 C0 1.34 0 0.68 0 0 Z " fill="#FBFDFC" transform="translate(177,81)"/>
<path d="M0 0 C0 0.33 0 0.66 0 1 C-1.423125 1.0928125 -1.423125 1.0928125 -2.875 1.1875 C-4.421875 1.5896875 -4.421875 1.5896875 -6 2 C-7.45291273 4.46255685 -7.45291273 4.46255685 -8 7 C-8.33 6.01 -8.66 5.02 -9 4 C-9.66 3.67 -10.32 3.34 -11 3 C-7.48550811 -0.37391222 -4.73940561 -0.27342725 0 0 Z " fill="#E0F0F4" transform="translate(166,62)"/>
<path d="M0 0 C2.97 0.495 2.97 0.495 6 1 C6 1.99 6 2.98 6 4 C4.125 4.625 4.125 4.625 2 5 C1.34 4.34 0.68 3.68 0 3 C0 2.01 0 1.02 0 0 Z " fill="#F8FCFB" transform="translate(176,114)"/>
<path d="M0 0 C1.10336858 3.31010574 1.13531135 5.6813976 0 9 C-2.0625 10.3125 -2.0625 10.3125 -4 11 C-3.71125 10.29875 -3.4225 9.5975 -3.125 8.875 C-1.97866412 5.94547497 -0.97374346 2.99078347 0 0 Z " fill="#C7DAE8" transform="translate(242,66)"/>
<path d="M0 0 C0.99 0.33 1.98 0.66 3 1 C3 2.98 3 4.96 3 7 C1.68 6.34 0.36 5.68 -1 5 C-0.67 3.35 -0.34 1.7 0 0 Z " fill="#FBFCF6" transform="translate(138,63)"/>
<path d="M0 0 C2.475 0.495 2.475 0.495 5 1 C5 1.99 5 2.98 5 4 C3.68 4.33 2.36 4.66 1 5 C0.67 3.35 0.34 1.7 0 0 Z " fill="#EFEFEE" transform="translate(40,63)"/>
<path d="M0 0 C0.61875 0.474375 1.2375 0.94875 1.875 1.4375 C3.90705546 3.02417441 3.90705546 3.02417441 6 4 C5.01 5.32 4.02 6.64 3 8 C1.02 4.535 1.02 4.535 -1 1 C-0.67 0.67 -0.34 0.34 0 0 Z " fill="#2E75B4" transform="translate(25,56)"/>
<path d="M0 0 C0.99 0 1.98 0 3 0 C2.67 2.31 2.34 4.62 2 7 C0.4375 5.1875 0.4375 5.1875 -1 3 C-0.67 2.01 -0.34 1.02 0 0 Z " fill="#0961A4" transform="translate(27,54)"/>
<path d="M0 0 C0.66 0 1.32 0 2 0 C2.66 1.98 3.32 3.96 4 6 C3.34 6.66 2.68 7.32 2 8 C-0.1519437 4.77208445 -0.20086443 3.71599191 0 0 Z " fill="#E8EBE8" transform="translate(227,32)"/>
<path d="M0 0 C0 1.32 0 2.64 0 4 C-3.3 4 -6.6 4 -10 4 C-6.86268382 1.90845588 -3.85464592 0 0 0 Z " fill="#D4E4ED" transform="translate(92,18)"/>
<path d="M0 0 C1.98 0.66 3.96 1.32 6 2 C4.68 2.99 3.36 3.98 2 5 C1.01 4.34 0.02 3.68 -1 3 C-0.67 2.01 -0.34 1.02 0 0 Z " fill="#E5ECEE" transform="translate(65,19)"/>
<path d="M0 0 C2.31 0 4.62 0 7 0 C6.25 1.9375 6.25 1.9375 5 4 C2.875 4.75 2.875 4.75 1 5 C1 4.34 1 3.68 1 3 C1.66 2.67 2.32 2.34 3 2 C2.01 1.34 1.02 0.68 0 0 Z " fill="#E6EFF3" transform="translate(70,16)"/>
<path d="M0 0 C0 0.66 0 1.32 0 2 C-7.42857143 2.28571429 -7.42857143 2.28571429 -11 0 C-3.57142857 -1.28571429 -3.57142857 -1.28571429 0 0 Z " fill="#4C84B5" transform="translate(192,7)"/>
<path d="M0 0 C-0.66 0 -1.32 0 -2 0 C-2 0.66 -2 1.32 -2 2 C-4.64 2 -7.28 2 -10 2 C-6.80505194 -1.19494806 -4.22040044 -1.35655728 0 0 Z " fill="#C1D8E9" transform="translate(178,139)"/>
<path d="M0 0 C-2.26185454 2.26185454 -3.96983561 3.03921617 -7 4 C-7.99 3.67 -8.98 3.34 -10 3 C-6.68152292 -0.06320961 -4.44849969 -0.3033068 0 0 Z " fill="#0663B1" transform="translate(186,132)"/>
<path d="M0 0 C1.98 0.66 3.96 1.32 6 2 C6 2.99 6 3.98 6 5 C3.69 4.34 1.38 3.68 -1 3 C-0.67 2.01 -0.34 1.02 0 0 Z " fill="#E1EBF3" transform="translate(50,97)"/>
<path d="M0 0 C0.33 1.32 0.66 2.64 1 4 C-0.65 4.33 -2.3 4.66 -4 5 C-4 4.01 -4 3.02 -4 2 C-2.68 1.34 -1.36 0.68 0 0 Z " fill="#EDEDEF" transform="translate(130,125)"/>
<path d="M0 0 C0.33 0.66 0.66 1.32 1 2 C3.52733235 2.65555119 3.52733235 2.65555119 6 3 C5.67 3.99 5.34 4.98 5 6 C4.01 6 3.02 6 2 6 C0 3 0 3 0 0 Z " fill="#2A75AE" transform="translate(17,109)"/>
<path d="M0 0 C1.32 0 2.64 0 4 0 C4.33 1.32 4.66 2.64 5 4 C3.35 4 1.7 4 0 4 C0 2.68 0 1.36 0 0 Z " fill="#FCFCFA" transform="translate(148,98)"/>
<path d="M0 0 C1.32 0 2.64 0 4 0 C4 1.65 4 3.3 4 5 C2.68 4.67 1.36 4.34 0 4 C0 2.68 0 1.36 0 0 Z " fill="#F0EFF1" transform="translate(64,86)"/>
<path d="M0 0 C0.66 0.33 1.32 0.66 2 1 C2 2.65 2 4.3 2 6 C1.01 6 0.02 6 -1 6 C-1.042721 4.33388095 -1.04063832 2.66617115 -1 1 C-0.67 0.67 -0.34 0.34 0 0 Z " fill="#F1F2EE" transform="translate(138,79)"/>
<path d="M0 0 C1.65 0 3.3 0 5 0 C5 1.32 5 2.64 5 4 C3.35 4 1.7 4 0 4 C0 2.68 0 1.36 0 0 Z " fill="#EFEFED" transform="translate(40,74)"/>
<path d="M0 0 C2 3.75 2 3.75 2 6 C-0.31 6 -2.62 6 -5 6 C-4.67 5.34 -4.34 4.68 -4 4 C-2.68 4 -1.36 4 0 4 C0 2.68 0 1.36 0 0 Z " fill="#0164B4" transform="translate(176,69)"/>
<path d="M0 0 C0.66 0.33 1.32 0.66 2 1 C2.625 3.5625 2.625 3.5625 3 6 C1.68 5.67 0.36 5.34 -1 5 C-0.67 3.35 -0.34 1.7 0 0 Z " fill="#095B9E" transform="translate(173,67)"/>
<path d="M0 0 C0.99 0.33 1.98 0.66 3 1 C2.34 2.65 1.68 4.3 1 6 C0.01 5.67 -0.98 5.34 -2 5 C-1.34 3.35 -0.68 1.7 0 0 Z " fill="#FDFAFA" transform="translate(37,51)"/>
<path d="M0 0 C0.33 0.99 0.66 1.98 1 3 C-4.94 2.01 -4.94 2.01 -11 1 C-11 0.67 -11 0.34 -11 0 C-3.375 -1.125 -3.375 -1.125 0 0 Z " fill="#D7E7F1" transform="translate(171,51)"/>
<path d="M0 0 C-0.99 1.485 -0.99 1.485 -2 3 C-3.65 2.67 -5.3 2.34 -7 2 C-5.26578631 -1.46842738 -3.40984787 -1.13661596 0 0 Z " fill="#ECF2F0" transform="translate(81,29)"/>
<path d="M0 0 C0 0.99 0 1.98 0 3 C-1.98 3.33 -3.96 3.66 -6 4 C-6.33 3.34 -6.66 2.68 -7 2 C-2.25 0 -2.25 0 0 0 Z " fill="#065AA8" transform="translate(76,21)"/>
<path d="M0 0 C2.97 0.33 5.94 0.66 9 1 C4.82091936 3.08954032 4.19589427 3.16552619 0 2 C0 1.34 0 0.68 0 0 Z " fill="#065CA5" transform="translate(184,4)"/>
</svg>
